<?xml version="1.0" encoding="utf-8"?>
<!-- Generator: Adobe Illustrator 23.0.3, SVG Export Plug-In . SVG Version: 6.00 Build 0)  -->
<svg version="1.1" id="Layer_1" xmlns="http://www.w3.org/2000/svg" xmlns:xlink="http://www.w3.org/1999/xlink" x="0px" y="0px"
	 width="1000px" height="601.846px" viewBox="0 0 1000 601.846" style="enable-background:new 0 0 1000 601.846;"
	 xml:space="preserve">
<style type="text/css">
	.st0{fill:#EBEFF2;}
	.st1{fill:#375A64;}
	.st2{fill:#030A26;}
	.st3{fill:#FF9F80;}
	.st4{fill:#FF4031;}
	.st5{fill:#1A2E34;}
	.st6{fill:#88A6B0;}
</style>
<g>
	<g>
		<path class="st0" d="M572.491,64.782c12.912,0,20.775,9.395,24.477,21.864c1.364-0.426,2.842-0.676,4.469-0.676
			c10.129,0,15.084,8.869,16.053,18.825l8.679-1.203v24.899h24.597c2.136-14.275,14.594-24.234,27.392-26.676
			c5.348-1.02,4.735-6.912,2.956-9.19c-0.006-0.008-0.008-0.01-0.014-0.018c-2.401-2.497-3.889-5.876-3.889-9.592v-4.363
			c0-7.628,6.241-13.87,13.87-13.87h0c7.628,0,13.87,6.241,13.87,13.87v4.363c0,3.724-1.495,7.111-3.905,9.61h0.058
			c0,0-4.449,7.522,4.773,9.584c9.541,2.134,23.042,11.172,25.078,26.282h41.505v-15.593c-9.633-0.911-17.163-9.016-17.163-26.086
			c0-18.159,5.698-36.055,19.03-36.055c13.332,0,19.03,17.896,19.03,36.055c0,17.07-7.53,25.175-17.163,26.086v15.593h27.535V6.723
			H553.244V75.32C557.623,68.918,563.943,64.782,572.491,64.782z M743.142,119.776h-3.313v-9.498h3.313V119.776z M743.142,99.337
			h-3.313v-9.496h3.313V99.337z M743.142,78.901h-3.313v-9.496h3.313V78.901z M735.965,51.288h5.521
			c0.914,0,1.656,0.742,1.656,1.656v5.521h-3.313V54.6h-3.865L735.965,51.288L735.965,51.288z M710.574,51.288h11.798V54.6h-11.798
			V51.288z M685.182,51.288h11.799V54.6h-11.799V51.288z M659.789,51.288h11.799V54.6h-11.799V51.288z M639.019,52.944
			c0-0.914,0.742-1.656,1.656-1.656h5.521V54.6h-3.865v3.865h-3.313L639.019,52.944L639.019,52.944z M639.019,69.406h3.313v9.498
			h-3.313V69.406z M639.019,89.844h3.313v9.496h-3.313V89.844z M639.019,110.28h3.313v9.496h-3.313V110.28z"/>
		<path class="st0" d="M681.1,92.607c0.006,0.008,0.008,0.01,0.014,0.018h0.002C681.11,92.619,681.105,92.613,681.1,92.607z"/>
		<path class="st0" d="M443.902,355.836c-8.38-4.015-22.206-11.269-29.553-18.582c-9.685-9.641-18.022-20.115-25.878-30.594
			c-15.893,0.302-30.805,3.64-45.615,12.401c-3.478,2.057-12.047,2.931-15.385,1.384c-27.23-12.615-71.122-10.685-112.206-1.076
			c-6.428,1.503-19.739-5.552-19.739-5.552l0.001-0.088c-0.133-0.054-0.264-0.113-0.381-0.201c-0.402-0.306-0.643-0.779-0.654-1.283
			l-3.544-160.636c-0.014-0.658,0.362-1.262,0.959-1.538c0.262-0.123,26.584-12.269,55.878-18.694
			c37.863-8.299,64.095-3.391,76.198,14.119c18.972-24.661,62.127-25.284,131.792-1.912c0.662,0.222,1.114,0.835,1.13,1.533
			l0.217,9.855c4.215,2.245,8.815,5.732,8.892,9.258l1.843,44.143c1.618,1.029,3.417,2.494,5.408,4.587
			c17.124,17.999,24.379,27.523,28.558,36.045V87.627H146.042v240.511h116.535c0.914,0,1.656,0.742,1.656,1.656v26.041H443.902z"/>
		<path class="st1" d="M215.265,319.369c41.084-9.61,84.976-11.54,112.206,1.076c3.338,1.547,11.907,0.673,15.385-1.384
			c14.81-8.761,29.722-12.099,45.615-12.401c-2.554-3.406-5.057-6.813-7.539-10.192c-21.077-0.569-39.56,2.69-52.378,13.785
			c-0.028,0.025-0.065,0.033-0.094,0.056c-0.081,0.061-0.157,0.127-0.25,0.173c-0.032,0.016-0.067,0.019-0.099,0.033
			c-0.06,0.025-0.119,0.042-0.181,0.06c-0.115,0.033-0.229,0.054-0.347,0.062c-0.038,0.003-0.075,0.02-0.113,0.02
			c-0.021,0-0.042-0.012-0.063-0.013c-0.2-0.008-0.397-0.045-0.583-0.123c-0.008-0.004-0.017-0.002-0.025-0.005
			c-0.061-0.027-0.11-0.071-0.167-0.105c-0.062-0.036-0.129-0.062-0.186-0.107c-28.071-22.082-128.874,3.254-129.889,3.511
			c-0.135,0.034-0.272,0.052-0.409,0.052c-0.215,0-0.422-0.055-0.621-0.136l-0.001,0.088
			C195.526,313.818,208.837,320.873,215.265,319.369z"/>
		<path class="st1" d="M457.122,154.973l1.152,52.2c0.262-0.161,0.529-0.313,0.815-0.432c1.594-0.669,4.542-1.055,8.768,1.633
			l-1.843-44.143C465.937,160.705,461.337,157.218,457.122,154.973z"/>
		<path class="st0" d="M194.284,152.632l3.474,157.477c6.626-1.596,28.659-6.67,52.956-9.713c36.51-4.57,61.719-2.758,75.029,5.396
			l-3.114-141.114l-0.349-15.834C297.385,108.289,204.883,147.917,194.284,152.632z M307.183,269.079
			c-0.319,0.858-1.27,1.305-2.129,0.979c-21.042-7.779-45.569,0.349-45.814,0.434c-0.177,0.06-0.356,0.088-0.532,0.088
			c-0.691,0-1.335-0.436-1.569-1.126c-0.293-0.865,0.171-1.805,1.037-2.098c1.048-0.356,25.899-8.583,48.027-0.403
			C307.061,267.269,307.5,268.223,307.183,269.079z M271.092,252.455c0.099,1.118-0.036,2.195-0.312,3.219
			c9.462-1.486,22.879-2.123,35.425,2.515c0.857,0.317,1.296,1.27,0.979,2.126c-0.319,0.858-1.27,1.305-2.129,0.979
			c-12.937-4.783-27.183-3.551-36.302-1.875c-1.507,1.682-3.613,2.836-6.04,3.052c-1.544,0.138-3.014-0.151-4.352-0.71
			c-0.229-0.05-0.446-0.135-0.634-0.274c-2.742-1.394-4.738-4.104-5.031-7.394c-0.381-4.277,2.235-8.1,6.097-9.482l-7.324-44.622
			c-2.476,0.015-4.727-1.114-6.173-2.961c-19.758,1.463-35.332,9.376-35.503,9.464c-0.243,0.125-0.504,0.185-0.759,0.185
			c-0.6,0-1.179-0.326-1.473-0.895c-0.421-0.813-0.104-1.812,0.708-2.232c0.708-0.366,15.775-8.042,35.564-9.742
			c-0.06-0.292-0.141-0.576-0.169-0.88c-0.08-0.901,0.027-1.768,0.238-2.598l-3.199-1.306c-17.543,2.205-30.754,8.927-30.91,9.008
			c-0.244,0.125-0.505,0.185-0.761,0.185c-0.598,0-1.178-0.326-1.472-0.895c-0.421-0.811-0.104-1.812,0.708-2.232
			c0.594-0.307,11.296-5.768,26.415-8.523l-7.911-3.228c-10.152,2.765-16.868,6.177-16.979,6.234
			c-0.244,0.125-0.505,0.185-0.761,0.185c-0.598,0-1.178-0.326-1.472-0.895c-0.421-0.811-0.104-1.812,0.708-2.232
			c0.405-0.21,5.522-2.816,13.52-5.326l-4.261-1.739c-1.376,2.076-3.618,3.551-6.291,3.789c-4.667,0.416-8.788-3.031-9.203-7.698
			c-0.415-4.667,3.031-8.788,7.698-9.203c4.549-0.405,8.551,2.868,9.137,7.354c7.904-2.727,19.53-5.719,32.553-5.719
			c0.914,0,1.656,0.742,1.656,1.656s-0.742,1.656-1.656,1.656c-12.487,0-23.801,2.931-31.478,5.574l6.995,2.854
			c6.953-1.815,15.369-3.285,24.483-3.285c0.914,0,1.656,0.742,1.656,1.656s-0.742,1.656-1.656,1.656
			c-6.885,0-13.408,0.897-19.172,2.14l8.889,3.627c2.365-0.272,4.8-0.46,7.302-0.547c0.717-0.299,1.474-0.528,2.289-0.601
			c4.285-0.382,8.068,2.783,8.449,7.068c0.299,3.354-1.59,6.375-4.473,7.723l7.356,44.818c2.678,0.049,5.112,1.226,6.782,3.146
			c9.506-1.695,23.928-2.775,37.357,2.19c0.857,0.317,1.296,1.27,0.979,2.126c-0.319,0.858-1.27,1.305-2.129,0.979
			c-12.084-4.467-25.309-3.687-34.433-2.198C270.85,251.008,271.026,251.711,271.092,252.455z"/>
		<path class="st0" d="M446.649,198.609c2.855,3.151,6.055,7.02,8.339,9.84l-1.37-62.093c-67.845-22.597-110.91-21.752-128.024,2.51
			l3.458,156.733c12.808-9.599,30.029-12.728,49.408-12.491l-0.995-1.353c-5.384-7.294-3.349-14.458,0.819-18.027
			c4.099-3.509,10.988-4.264,17.14,1.952c19.74,19.944,28.701,18.819,31.641,17.406c3.241-1.559,4.015-5.402,3.655-8.478
			c-0.855-7.345-13.629-21.993-25.983-36.16c-12.392-14.21-25.206-28.905-27.804-38.224c-1.918-6.876-0.401-11.032,1.709-13.509
			c-17.461,0.113-29.392,4.097-34.88,7.689c-0.761,0.503-1.791,0.287-2.293-0.479s-0.287-1.792,0.479-2.295
			c6.288-4.115,20.541-8.765,41.432-8.124c3.79-1.359,8.399-1.031,11.655,0.567c0.054-3.694,1.206-6.686,3.31-8.624
			c-28.319-4.05-47.231,1.477-54.583,6.291c-0.761,0.496-1.79,0.289-2.293-0.479c-0.501-0.766-0.287-1.792,0.479-2.295
			c8.208-5.37,29.982-11.663,62.39-5.891c1.829-0.069,3.778,0.334,5.78,1.146c5.387,1.157,11.042,2.644,16.954,4.512
			C430.201,187.855,436.961,187.919,446.649,198.609z M435.359,180.623c-0.241,0.677-0.879,1.1-1.559,1.1
			c-0.185,0-0.373-0.03-0.557-0.097c-47.78-17.063-79.424-9.133-89.479-2.551c-0.761,0.503-1.791,0.289-2.293-0.479
			c-0.501-0.766-0.287-1.792,0.479-2.295c10.532-6.89,43.398-15.299,92.408,2.206C435.219,178.813,435.667,179.762,435.359,180.623z
			 M435.359,167.959c-0.241,0.677-0.879,1.1-1.559,1.1c-0.185,0-0.373-0.03-0.557-0.097c-47.786-17.07-79.426-9.133-89.479-2.551
			c-0.761,0.496-1.79,0.289-2.293-0.479c-0.501-0.766-0.287-1.792,0.479-2.295c10.532-6.893,43.396-15.303,92.408,2.206
			C435.219,166.15,435.667,167.098,435.359,167.959z"/>
		<path class="st0" d="M421.866,193.399c0.363-0.877,0.883-1.658,1.502-2.347c-1.749-0.526-3.47-1.014-5.17-1.473
			C419.437,190.719,420.665,191.987,421.866,193.399z"/>
		<path class="st2" d="M434.357,165.843c-49.013-17.51-81.876-9.099-92.408-2.206c-0.766,0.503-0.98,1.529-0.479,2.295
			c0.503,0.768,1.531,0.975,2.293,0.479c10.053-6.582,41.693-14.518,89.479,2.551c0.184,0.067,0.372,0.097,0.557,0.097
			c0.68,0,1.318-0.423,1.559-1.1C435.667,167.098,435.219,166.15,434.357,165.843z"/>
		<path class="st2" d="M434.357,178.507c-49.01-17.505-81.876-9.097-92.408-2.206c-0.766,0.503-0.98,1.529-0.479,2.295
			c0.501,0.768,1.531,0.981,2.293,0.479c10.055-6.582,41.699-14.512,89.479,2.551c0.184,0.067,0.372,0.097,0.557,0.097
			c0.68,0,1.318-0.423,1.559-1.1C435.667,179.762,435.219,178.813,434.357,178.507z"/>
		<path class="st2" d="M218.781,176.502l1.165,0.475c7.677-2.643,18.99-5.574,31.478-5.574c0.914,0,1.656-0.742,1.656-1.656
			s-0.742-1.656-1.656-1.656c-13.023,0-24.65,2.992-32.553,5.719c0.015,0.117,0.055,0.225,0.066,0.344
			C219.009,174.962,218.928,175.742,218.781,176.502z"/>
		<path class="st2" d="M208.271,186.633c-0.812,0.421-1.129,1.421-0.708,2.232c0.294,0.569,0.873,0.895,1.472,0.895
			c0.257,0,0.518-0.06,0.761-0.185c0.111-0.058,6.827-3.469,16.979-6.234l-4.984-2.034
			C213.793,183.818,208.676,186.424,208.271,186.633z"/>
		<path class="st2" d="M251.425,179.859c0.914,0,1.656-0.742,1.656-1.656s-0.742-1.656-1.656-1.656
			c-9.114,0-17.53,1.47-24.483,3.285l5.311,2.167C238.017,180.756,244.54,179.859,251.425,179.859z"/>
		<path class="st2" d="M248.445,185.08c-2.502,0.086-4.938,0.275-7.302,0.547l4.23,1.726
			C246.177,186.356,247.234,185.584,248.445,185.08z"/>
		<path class="st2" d="M208.271,195.092c-0.812,0.421-1.129,1.421-0.708,2.232c0.294,0.569,0.873,0.895,1.472,0.895
			c0.257,0,0.518-0.06,0.761-0.185c0.156-0.081,13.366-6.803,30.91-9.008l-6.019-2.456
			C219.566,189.323,208.864,194.784,208.271,195.092z"/>
		<path class="st2" d="M208.271,203.55c-0.812,0.421-1.129,1.419-0.708,2.232c0.294,0.569,0.873,0.895,1.473,0.895
			c0.256,0,0.516-0.06,0.759-0.185c0.17-0.088,15.745-8.001,35.503-9.464c-0.721-0.92-1.214-2.018-1.462-3.219
			C224.045,195.508,208.978,203.184,208.271,203.55z"/>
		<path class="st2" d="M306.204,266.952c-22.128-8.18-46.979,0.047-48.027,0.403c-0.866,0.293-1.331,1.234-1.037,2.098
			c0.234,0.69,0.878,1.126,1.569,1.126c0.176,0,0.355-0.028,0.532-0.088c0.245-0.084,24.772-8.212,45.814-0.434
			c0.858,0.326,1.809-0.121,2.129-0.979C307.5,268.223,307.061,267.269,306.204,266.952z"/>
		<path class="st2" d="M268.753,259.419c9.119-1.677,23.365-2.908,36.302,1.875c0.858,0.326,1.809-0.121,2.129-0.979
			c0.317-0.856-0.122-1.809-0.979-2.126c-12.546-4.638-25.963-4-35.425-2.515C270.399,257.079,269.706,258.355,268.753,259.419z"/>
		<path class="st2" d="M258.361,261.761c-0.213-0.089-0.429-0.17-0.634-0.274C257.915,261.626,258.132,261.711,258.361,261.761z"/>
		<path class="st2" d="M305.055,252.529c0.858,0.326,1.809-0.121,2.129-0.979c0.317-0.856-0.122-1.809-0.979-2.126
			c-13.429-4.964-27.851-3.884-37.357-2.19c0.778,0.894,1.384,1.939,1.775,3.097C279.746,248.842,292.97,248.062,305.055,252.529z"
			/>
		<path class="st3" d="M460.665,278.872h41.159v-21.148c-3.658-10.716-9.098-19.502-30.958-42.481
			c-4.191-4.406-8.11-6.438-10.498-5.445c-1.241,0.52-1.816,1.793-1.916,2.976l28.758,35.289l-2.569,2.092l-29.173-35.798
			l0.004-0.003c-0.007-0.009-0.017-0.014-0.024-0.023c-0.061-0.078-6.221-7.943-11.253-13.496
			c-9.585-10.576-15.247-9.366-16.752-8.739c-1.793,0.741-2.847,2.513-2.901,4.658c15.833,18.715,45.739,53.883,48.376,56.305
			l-2.241,2.441c-3.477-3.194-47.232-54.914-49.093-57.114l0.011-0.009c-0.025-0.03-0.059-0.049-0.082-0.081
			c-7.587-10.345-15.194-13.186-19.373-11.409c-3.04,1.292-4.342,5.124-3.551,10.274c3.761,4.566,44.377,53.808,54.097,63.577
			l-2.349,2.338c-10.253-10.306-52.802-61.981-54.608-64.177l0.019-0.016c-0.056-0.068-0.125-0.122-0.17-0.2
			c-1.362-2.327-7.327-3.692-11.568-1.896c-4.32,1.831-5.663,6.17-3.884,12.547c2.397,8.596,14.959,23.003,27.11,36.936
			c13.269,15.215,25.802,29.589,26.777,37.952c0.625,5.372-1.487,9.912-5.512,11.846c-4.446,2.142-14.958,2.627-35.43-18.062
			c-4.974-5.025-9.912-4.091-12.63-1.764c-3.042,2.603-4.435,7.954-0.308,13.544l3.387,4.604
			c10.069,13.707,20.482,27.883,33.169,40.514c9.692,9.647,32.268,19.664,35.167,20.928h8.811L460.665,278.872L460.665,278.872z"/>
		<path class="st2" d="M505.137,257.45V87.627v-1.656V59.209H142.73v26.762v1.656v240.511H53.782c-0.914,0-1.656,0.742-1.656,1.656
			v95.972v16.192v62.432c0,0.914,0.742,1.656,1.656,1.656h36.213h172.583c0.914,0,1.656-0.742,1.656-1.656v-62.432v-16.192v-66.618
			h187.277h9.154v83.761h164.036V278.872H505.137V257.45z M621.388,439.597H463.977V282.185h157.411V439.597z M55.438,502.734
			v-59.12h32.9v59.12L55.438,502.734L55.438,502.734z M91.651,443.615h169.27v59.12H91.651V443.615z M260.921,424.11h-34.074h-3.313
			h-29.442h-3.313H180.61h-12.059h-14.176h-3.313h-16.278h-3.313h-5.099h-11.177H91.883H88.57H55.438v-92.659h205.483
			L260.921,424.11L260.921,424.11z M262.578,328.138H146.042V87.627h355.782v161.38c-4.179-8.522-11.434-18.046-28.558-36.045
			c-1.991-2.093-3.79-3.558-5.408-4.587c-4.226-2.688-7.175-2.302-8.768-1.633c-0.286,0.12-0.554,0.272-0.815,0.432l-1.152-52.2
			l-0.217-9.855c-0.016-0.699-0.468-1.311-1.13-1.533c-69.665-23.372-112.82-22.749-131.792,1.912
			c-12.103-17.509-38.335-22.418-76.198-14.119c-29.294,6.425-55.616,18.571-55.878,18.694c-0.596,0.276-0.973,0.88-0.959,1.538
			l3.544,160.636c0.012,0.505,0.252,0.977,0.654,1.283c0.117,0.088,0.248,0.147,0.381,0.201c0.199,0.081,0.406,0.136,0.621,0.136
			c0.137,0,0.274-0.017,0.409-0.052c1.016-0.257,101.819-25.593,129.889-3.511c0.057,0.045,0.124,0.07,0.186,0.107
			c0.057,0.034,0.105,0.077,0.167,0.105c0.008,0.004,0.017,0.002,0.025,0.005c0.187,0.079,0.383,0.116,0.583,0.123
			c0.021,0.001,0.042,0.013,0.063,0.013c0.038,0,0.075-0.017,0.113-0.02c0.118-0.008,0.232-0.029,0.347-0.062
			c0.062-0.018,0.121-0.035,0.181-0.06c0.033-0.013,0.067-0.017,0.099-0.033c0.092-0.046,0.169-0.112,0.25-0.173
			c0.03-0.022,0.066-0.031,0.094-0.056c12.818-11.095,31.301-14.354,52.378-13.785c2.482,3.379,4.985,6.786,7.539,10.192
			c7.857,10.48,16.193,20.953,25.878,30.594c7.347,7.313,21.173,14.567,29.553,18.582H264.234v-26.041
			C264.234,328.88,263.492,328.138,262.578,328.138z M427.074,188.734c-5.912-1.868-11.567-3.356-16.954-4.512
			c-2.002-0.811-3.952-1.214-5.78-1.146c-32.408-5.772-54.183,0.521-62.39,5.891c-0.766,0.503-0.98,1.529-0.479,2.295
			c0.503,0.768,1.531,0.975,2.293,0.479c7.353-4.814,26.265-10.341,54.583-6.291c-2.104,1.938-3.256,4.93-3.31,8.624
			c-3.257-1.598-7.866-1.926-11.655-0.567c-20.891-0.642-35.144,4.009-41.432,8.124c-0.766,0.503-0.98,1.529-0.479,2.295
			c0.501,0.766,1.531,0.981,2.293,0.479c5.487-3.592,17.419-7.576,34.88-7.689c-2.11,2.477-3.626,6.633-1.709,13.509
			c2.599,9.319,15.412,24.014,27.804,38.224c12.354,14.167,25.128,28.815,25.983,36.16c0.359,3.075-0.414,6.918-3.655,8.478
			c-2.94,1.413-11.901,2.538-31.641-17.406c-6.152-6.215-13.041-5.461-17.14-1.952c-4.169,3.569-6.204,10.734-0.819,18.027
			l0.995,1.353c-19.379-0.237-36.6,2.892-49.408,12.491l-3.458-156.733c17.114-24.262,60.178-25.107,128.024-2.51l1.37,62.093
			c-2.284-2.82-5.485-6.69-8.339-9.84C436.961,187.919,430.201,187.855,427.074,188.734z M423.368,191.052
			c-0.619,0.689-1.139,1.47-1.502,2.347c-1.201-1.412-2.429-2.68-3.668-3.819C419.898,190.038,421.62,190.526,423.368,191.052z
			 M322.28,148.843l0.349,15.834l3.114,141.114c-13.31-8.154-38.518-9.966-75.029-5.396c-24.296,3.043-46.33,8.118-52.956,9.713
			l-3.474-157.477C204.883,147.917,297.385,108.289,322.28,148.843z M416.687,334.908c-12.687-12.631-23.1-26.807-33.169-40.514
			l-3.387-4.604c-4.127-5.59-2.733-10.941,0.308-13.544c2.718-2.327,7.656-3.261,12.63,1.764
			c20.472,20.689,30.984,20.203,35.43,18.062c4.025-1.935,6.138-6.474,5.512-11.846c-0.975-8.363-13.508-22.737-26.777-37.952
			c-12.15-13.934-24.713-28.34-27.11-36.936c-1.779-6.377-0.436-10.716,3.884-12.547c4.241-1.797,10.206-0.431,11.568,1.896
			c0.046,0.078,0.114,0.132,0.17,0.2l-0.019,0.016c1.806,2.195,44.355,53.87,54.608,64.177l2.349-2.338
			c-9.72-9.769-50.335-59.012-54.097-63.577c-0.792-5.15,0.511-8.982,3.551-10.274c4.178-1.777,11.786,1.063,19.373,11.409
			c0.023,0.032,0.057,0.051,0.082,0.081l-0.011,0.009c1.861,2.2,45.617,53.92,49.093,57.114l2.241-2.441
			c-2.637-2.422-32.543-37.59-48.376-56.305c0.054-2.145,1.108-3.917,2.901-4.658c1.504-0.628,7.167-1.837,16.752,8.739
			c5.033,5.553,11.192,13.418,11.253,13.496c0.007,0.009,0.017,0.014,0.024,0.023l-0.004,0.003l29.173,35.798l2.569-2.092
			l-28.758-35.289c0.1-1.183,0.675-2.456,1.916-2.976c2.388-0.992,6.307,1.039,10.498,5.445
			c21.861,22.979,27.301,31.765,30.958,42.481v21.148h-41.159v76.964h-8.811C448.956,354.572,426.379,344.554,416.687,334.908z"/>
		<path class="st4" d="M262.065,244.088l-7.356-44.818c2.883-1.348,4.772-4.369,4.473-7.723c-0.382-4.285-4.164-7.449-8.449-7.068
			c-0.815,0.073-1.572,0.302-2.289,0.601c-1.211,0.504-2.268,1.277-3.072,2.273l-4.23-1.726l-8.889-3.627l-5.311-2.167l-6.995-2.854
			l-1.165-0.475c0.146-0.759,0.228-1.539,0.156-2.348c-0.011-0.119-0.051-0.227-0.066-0.344c-0.587-4.486-4.589-7.759-9.137-7.354
			c-4.667,0.416-8.114,4.536-7.698,9.203c0.416,4.667,4.536,8.114,9.203,7.698c2.673-0.238,4.915-1.713,6.291-3.789l4.261,1.739
			l4.984,2.034l7.911,3.228l6.019,2.456l3.199,1.306c-0.211,0.829-0.318,1.697-0.238,2.598c0.027,0.304,0.108,0.588,0.169,0.88
			c0.248,1.201,0.742,2.299,1.462,3.219c1.447,1.847,3.697,2.976,6.173,2.961l7.324,44.622c-3.863,1.382-6.478,5.205-6.097,9.482
			c0.293,3.29,2.289,6,5.031,7.394c0.205,0.104,0.421,0.185,0.634,0.274c1.337,0.559,2.808,0.848,4.352,0.71
			c2.427-0.216,4.533-1.37,6.04-3.052c0.953-1.064,1.646-2.34,2.026-3.746c0.277-1.023,0.412-2.101,0.312-3.219
			c-0.066-0.743-0.241-1.446-0.47-2.124c-0.39-1.159-0.996-2.203-1.775-3.097C267.177,245.314,264.743,244.137,262.065,244.088z"/>
		<path class="st5" d="M896.462,383.663c-28.407,13.596-45.273-6.731-58.917,0c-12.712,6.271-21.831,32.454-39.52,35.645h33.751
			c0,0-0.712-13.425,13.274-16.495c13.985-3.07,19.772,0.434,29.677,1.706c21.26,2.729,39.569-8.416,49.461-22.513
			c6.936-9.885,22.924-13.047,23.622-13.181l-0.018-13.769C927.553,354.081,924.829,370.085,896.462,383.663z"/>
		<path class="st2" d="M922.14,345.165c-22.513,5.117-15.009,12.28-39.569,23.646c-24.56,11.366-64.78-6.336-52.531-34.561
			c7.846-18.079-0.099-41.449,5.117-61.4c5.357-20.49,15.35-24.219,30.359-26.607h-33.747c-19.467,46.557-31.747,0.682-43.345,0
			h-100.26l0.226,173.065h109.634c17.689-3.191,26.808-29.375,39.52-35.645c13.644-6.731,30.51,13.596,58.917,0
			c28.367-13.577,31.092-29.581,51.329-28.607c0.029,0.001,0.055,0.001,0.084,0.002l-0.048-23.297
			C947.367,334.71,943.179,340.383,922.14,345.165z M756.228,404.36c-31.383-4.791-71.721-29.224-56.88-72.914
			c15.918-46.859-11.854-87.492,58.31-79.279c31.52,3.69,55.061,21.365,56.695,79.279
			C815.66,377.764,796.484,410.506,756.228,404.36z"/>
		<path class="st5" d="M831.769,246.243h-43.345C800.022,246.925,812.302,292.8,831.769,246.243z"/>
		<path class="st5" d="M757.658,252.167c-70.164-8.213-42.392,32.42-58.31,79.279c-14.841,43.69,25.497,68.122,56.88,72.914
			c40.257,6.146,59.432-26.596,58.125-72.914C812.719,273.532,789.178,255.857,757.658,252.167z M760.195,383.865
			c-22.595-3.164-41.269-23.837-41.269-53.242s18.477-53.242,41.27-53.242c22.792,0,39.902,23.873,41.27,53.242
			C803.032,364.298,784.222,387.229,760.195,383.865z"/>
		<path class="st1" d="M924.187,382.005c-9.892,14.097-28.201,25.242-49.461,22.513c-9.905-1.271-15.691-4.776-29.677-1.706
			c-13.986,3.07-13.274,16.495-13.274,16.495h59.586c10.653,0,28.05-2.367,32.825-14.207c4.776-11.84,23.688-9.534,23.688-9.534
			v-26.757c0,0-0.05,0.01-0.066,0.013C947.11,368.958,931.123,372.12,924.187,382.005z"/>
		<path class="st6" d="M924.187,405.101c-4.776,11.84-22.172,14.207-32.825,14.207h56.513v-23.74
			C947.875,395.568,928.962,393.262,924.187,405.101z"/>
		<path class="st5" d="M947.79,299.428c-1.553,20.649-25.331,27.025-48.887,38.376c-44.302,21.347-53.854-19.615-53.854-42.01
			s26.807-39.093,53.854-39.093c26.054,0,47.347,16.849,48.875,38.106l-0.129-48.563h-82.133
			c-15.009,2.388-25.002,6.117-30.359,26.607c-5.216,19.95,2.729,43.321-5.117,61.4c-12.249,28.225,27.971,45.927,52.531,34.561
			c24.56-11.366,17.055-18.529,39.569-23.646c21.039-4.782,25.227-10.455,25.686-13.405c0.032-0.207,0.048-0.402,0.048-0.581
			L947.79,299.428z"/>
		<path class="st1" d="M760.195,277.382c-22.792,0-41.269,23.837-41.269,53.242s18.675,50.078,41.27,53.242
			c24.028,3.364,42.837-19.567,41.27-53.242C800.097,301.255,782.987,277.382,760.195,277.382z M760.219,370.143
			c-14.128-1.071-25.648-17.314-25.648-38.672s11.483-38.672,25.648-38.672c14.165,0,21.259,17.822,25.647,38.672
			C790.713,354.492,778.401,371.521,760.219,370.143z"/>
		<path class="st6" d="M760.219,292.8c-14.165,0-25.648,17.314-25.648,38.672s11.519,37.6,25.648,38.672
			c18.182,1.378,30.493-15.651,25.647-38.672C781.478,310.622,774.384,292.8,760.219,292.8z M761.108,353.69
			c-5.964,0.947-11.983-8.233-11.983-15.47s3.236-16.235,9.267-16.235c6.031,0,11.052,9.178,12.573,16.235
			C772.138,343.665,771.168,352.093,761.108,353.69z"/>
		<path class="st0" d="M758.391,321.986c-6.031,0-9.267,8.998-9.267,16.235s6.019,16.417,11.983,15.47
			c10.06-1.597,11.03-10.025,9.857-15.47C769.443,331.164,764.422,321.986,758.391,321.986z"/>
		<path class="st1" d="M898.903,256.7c-27.046,0-53.854,16.697-53.854,39.093s9.551,63.358,53.854,42.01
			c23.556-11.351,47.334-17.726,48.887-38.376c0.053-0.709,0.084-1.432,0.084-2.176c0-0.822-0.039-1.636-0.097-2.446
			C946.249,273.55,924.956,256.7,898.903,256.7z M882.912,326.891c-17.563,0-20.808-15.644-20.808-29.823
			c0-14.179,18.401-26.949,35.963-26.949c17.562,0,31.799,11.494,31.799,25.673S900.475,326.891,882.912,326.891z"/>
		<path class="st6" d="M898.068,270.12c-17.563,0-35.963,12.77-35.963,26.949c0,14.179,3.245,29.823,20.808,29.823
			c17.562,0,46.955-16.919,46.955-31.098S915.63,270.12,898.068,270.12z M900.547,306.587c-10.44,2.509-18.991-0.818-12.107-12.107
			c3.481-5.709,5.42-12.107,12.107-12.107c6.687,0,12.107,5.42,12.107,12.107S907.049,305.025,900.547,306.587z"/>
		<path class="st0" d="M900.547,282.373c-6.687,0-8.626,6.398-12.107,12.107c-6.884,11.289,1.668,14.616,12.107,12.107
			c6.502-1.563,12.107-5.421,12.107-12.107S907.234,282.373,900.547,282.373z"/>
		<path class="st6" d="M463.978,282.185v157.412h157.411V282.185H463.978z M611.333,363.427c0,37.267-30.319,67.586-67.585,67.586
			c-37.268,0-67.586-30.32-67.586-67.586s30.319-67.584,67.586-67.584C581.014,295.843,611.333,326.16,611.333,363.427z"/>
		<path class="st6" d="M478.37,363.427c0,36.05,29.329,65.378,65.378,65.378s65.377-29.328,65.377-65.378
			c0-36.048-29.328-65.376-65.377-65.376C507.699,298.051,478.37,327.379,478.37,363.427z M597.615,360.891
			c0,15.801-24.594,28.61-54.932,28.61s-54.932-12.809-54.932-28.61c0-15.801,24.594-28.611,54.932-28.611
			S597.615,345.09,597.615,360.891z"/>
		<path class="st0" d="M476.161,363.427c0,37.267,30.319,67.586,67.587,67.586c37.266,0,67.585-30.32,67.585-67.586
			s-30.319-67.584-67.585-67.584C506.48,295.843,476.161,326.16,476.161,363.427z M609.125,363.427
			c0,36.05-29.328,65.378-65.377,65.378c-36.049,0-65.378-29.328-65.378-65.378c0-36.048,29.329-65.376,65.378-65.376
			C579.797,298.051,609.125,327.379,609.125,363.427z"/>
		<path class="st0" d="M487.751,360.891c0,15.801,24.594,28.61,54.932,28.61s54.932-12.809,54.932-28.61
			c0-15.801-24.594-28.611-54.932-28.611S487.751,345.09,487.751,360.891z M542.683,336.08c13.703,0,24.811,11.108,24.811,24.811
			c0,13.702-11.108,24.811-24.811,24.811c-13.703,0-24.811-11.108-24.811-24.811C517.872,347.189,528.98,336.08,542.683,336.08z"/>
		<path class="st2" d="M542.683,385.702c13.703,0,24.811-11.108,24.811-24.811c0-13.703-11.108-24.811-24.811-24.811
			c-13.703,0-24.811,11.108-24.811,24.811C517.872,374.594,528.98,385.702,542.683,385.702z M542.683,353.377
			c4.15,0,7.514,3.364,7.514,7.514s-3.364,7.514-7.514,7.514c-4.15,0-7.514-3.364-7.514-7.514
			C535.169,356.741,538.533,353.377,542.683,353.377z"/>
		<path class="st3" d="M542.683,368.405c4.15,0,7.514-3.364,7.514-7.514s-3.364-7.514-7.514-7.514c-4.15,0-7.514,3.364-7.514,7.514
			C535.169,365.041,538.533,368.405,542.683,368.405z"/>
		<path class="st0" d="M260.921,331.451H55.438v92.659H88.57v-14.853h3.313v14.853h23.313v-20.403c0-3.086,2.502-5.589,5.589-5.589
			s5.589,2.502,5.589,5.589v20.403h5.099v-38.379h-16.717v-3.313h18.373c0.914,0,1.656,0.742,1.656,1.656v40.036h16.278v-48.472
			h-20.782c-0.914,0-1.656-0.742-1.656-1.656v-17.654h-20.058v-3.313h21.714c0.914,0,1.656,0.742,1.656,1.656v17.654h20.782
			c0.914,0,1.656,0.742,1.656,1.656v50.129h14.176v-22.142c0-3.33,2.699-6.029,6.029-6.029c3.33,0,6.029,2.699,6.029,6.029v22.142
			h10.171v-37.318c0-0.914,0.742-1.656,1.656-1.656h14.484c0.526-8.815,5.194-16.203,11.639-19.271l0.215-9.953V342.38
			c0-0.914,0.742-1.656,1.656-1.656h22.165v3.313h-20.508v11.911l-0.19,8.759c1.07-0.238,2.167-0.381,3.293-0.381
			c10.128,0,18.339,10.058,18.339,22.465c0,12.408-8.211,22.466-18.339,22.466c-9.672,0-17.576-9.178-18.271-20.809h-12.828v35.662
			h29.442v-14.853h3.313v14.853h34.074L260.921,331.451L260.921,331.451z M120.947,391.254c1.064,0,1.927,0.863,1.927,1.927
			s-0.863,1.927-1.927,1.927c-1.064,0-1.927-0.863-1.927-1.927S119.883,391.254,120.947,391.254z M68.604,340.724h21.39
			c0.914,0,1.656,0.742,1.656,1.656v17.236h-3.313v-15.579H68.604V340.724z M90.227,409.257c-10.129,0-18.339-10.058-18.339-22.466
			c0-12.407,8.211-22.465,18.339-22.465c10.128,0,18.339,10.058,18.339,22.465C108.566,399.199,100.355,409.257,90.227,409.257z
			 M174.756,392.691c-1.148,0-2.079-0.931-2.079-2.079s0.931-2.079,2.079-2.079s2.079,0.931,2.079,2.079
			S175.904,392.691,174.756,392.691z"/>
		<path class="st6" d="M260.921,443.615H91.651v59.12h169.27V443.615z M205.577,453.672h39.229v9.032h-39.229V453.672z
			 M106.17,453.672h59.309v9.032H106.17V453.672z M192.437,466.852v9.032h-59.309v-9.032H192.437z M249.872,494.52H103.773v-3.313
			h146.098V494.52z M257.146,475.884h-14.549v-9.032h14.549V475.884z"/>
		<path class="st1" d="M55.438,443.615v59.12h32.9v-59.12L55.438,443.615L55.438,443.615z M83.735,485.104H60.042v-3.313h23.694
			L83.735,485.104L83.735,485.104z M83.735,464.359H60.042v-3.313h23.694L83.735,464.359L83.735,464.359z"/>
		<rect x="60.042" y="461.047" class="st2" width="23.694" height="3.313"/>
		<rect x="60.042" y="481.791" class="st2" width="23.694" height="3.313"/>
		<rect x="106.17" y="453.672" class="st5" width="59.309" height="9.032"/>
		<rect x="133.128" y="466.852" class="st5" width="59.309" height="9.032"/>
		<rect x="205.577" y="453.672" class="st5" width="39.229" height="9.032"/>
		<rect x="242.597" y="466.852" class="st5" width="14.549" height="9.032"/>
		<rect x="103.773" y="491.207" class="st0" width="146.098" height="3.313"/>
		<path class="st6" d="M206.921,388.448c0.695,11.631,8.599,20.809,18.271,20.809c10.128,0,18.339-10.058,18.339-22.466
			c0-12.407-8.211-22.465-18.339-22.465c-1.126,0-2.223,0.143-3.293,0.381l0.19-8.759v-11.911h20.508v-3.313h-22.165
			c-0.914,0-1.656,0.742-1.656,1.656v13.531l-0.215,9.953c-6.445,3.068-11.113,10.456-11.639,19.271h-14.484
			c-0.914,0-1.656,0.742-1.656,1.656v37.318h3.313v-35.662L206.921,388.448L206.921,388.448z"/>
		<path class="st6" d="M133.128,382.418h-18.373v3.313h16.717v38.379h3.313v-40.036C134.785,383.16,134.043,382.418,133.128,382.418
			z"/>
		<rect x="223.535" y="409.257" class="st1" width="3.313" height="14.853"/>
		<rect x="88.57" y="409.257" class="st1" width="3.313" height="14.853"/>
		<ellipse class="st6" cx="90.227" cy="386.791" rx="18.339" ry="22.466"/>
		<path class="st6" d="M88.339,359.616h3.313V342.38c0-0.914-0.742-1.656-1.656-1.656H68.604v3.313h19.734L88.339,359.616
			L88.339,359.616z"/>
		<path class="st6" d="M152.719,372.325h-20.782v-17.654c0-0.914-0.742-1.656-1.656-1.656h-21.714v3.313h20.058v17.654
			c0,0.914,0.742,1.656,1.656,1.656h20.782v48.472h3.313v-50.129C154.376,373.067,153.634,372.325,152.719,372.325z"/>
		<path class="st6" d="M174.581,395.939c-3.33,0-6.029,2.699-6.029,6.029v22.142h12.059v-22.142
			C180.61,398.638,177.911,395.939,174.581,395.939z"/>
		<circle class="st6" cx="174.756" cy="390.612" r="2.079"/>
		<path class="st6" d="M120.784,398.118c-3.087,0-5.589,2.502-5.589,5.589v20.403h11.177v-20.403
			C126.373,400.621,123.871,398.118,120.784,398.118z"/>
		<path class="st6" d="M120.947,395.109c1.064,0,1.927-0.863,1.927-1.927s-0.863-1.927-1.927-1.927
			c-1.064,0-1.927,0.863-1.927,1.927S119.883,395.109,120.947,395.109z"/>
		<path class="st6" d="M617.49,104.795c-0.969-9.956-5.924-18.825-16.053-18.825c-1.626,0-3.105,0.25-4.469,0.676
			c-3.702-12.469-11.565-21.864-24.477-21.864c-8.549,0-14.868,4.135-19.248,10.538v38.377L617.49,104.795z"/>
		<path class="st1" d="M776.192,112.897c-0.615,0.058-1.237,0.091-1.867,0.091s-1.252-0.033-1.867-0.091v15.593h3.733
			L776.192,112.897L776.192,112.897z"/>
		<path class="st6" d="M650.458,131.65c0.043-1.076,0.153-2.127,0.308-3.16h-24.597l-72.716,64.589h95.429
			C649.06,184.65,649.896,145.842,650.458,131.65z M640.675,137.893c-0.914,0-1.656-0.742-1.656-1.656v-5.521h3.313v3.865h3.865
			v3.313L640.675,137.893L640.675,137.893z"/>
		<path class="st6" d="M772.459,128.491h-41.505c0.122,0.902,0.216,1.819,0.252,2.764c0.576,14.921,2.159,53.469,2.502,61.825
			h70.018v-64.589h-27.535L772.459,128.491L772.459,128.491z M743.142,136.237c0,0.914-0.742,1.656-1.656,1.656h-5.521v-3.313h3.865
			v-3.865h3.313L743.142,136.237L743.142,136.237z"/>
		<path class="st6" d="M776.192,112.897c9.633-0.911,17.163-9.016,17.163-26.086c0-18.159-5.698-36.055-19.03-36.055
			c-13.332,0-19.03,17.896-19.03,36.055c0,17.07,7.53,25.175,17.163,26.086c0.615,0.058,1.237,0.091,1.867,0.091
			S775.578,112.955,776.192,112.897z"/>
		<path class="st5" d="M730.955,128.491c-2.037-15.109-15.538-24.148-25.078-26.282c-9.222-2.062-4.773-9.584-4.773-9.584h-0.058
			c2.411-2.498,3.905-5.885,3.905-9.61v-4.363c0-7.628-6.242-13.87-13.87-13.87h0c-7.628,0-13.87,6.241-13.87,13.87v4.363
			c0,3.716,1.488,7.095,3.889,9.592c0.006,0.006,0.011,0.012,0.016,0.018h-0.002c1.779,2.278,2.392,8.17-2.956,9.19
			c-12.798,2.442-25.256,12.401-27.392,26.676c-0.154,1.033-0.265,2.083-0.308,3.16c-0.562,14.191-1.398,53-1.577,61.429h84.828
			c-0.344-8.356-1.927-46.904-2.502-61.824C731.17,130.31,731.076,129.393,730.955,128.491z M671.587,137.893h-11.798v-3.313h11.798
			V137.893z M696.979,137.893H685.18v-3.313h11.799V137.893z M722.372,137.893h-11.799v-3.313h11.799V137.893z"/>
		<polygon class="st1" points="626.168,103.592 617.49,104.795 553.244,113.697 553.244,193.079 553.452,193.079 626.168,128.491 		
			"/>
		<path class="st2" d="M551.587,196.392h253.796c0.914,0,1.656-0.742,1.656-1.656V5.067c0-0.914-0.742-1.656-1.656-1.656H551.587
			c-0.914,0-1.656,0.742-1.656,1.656v189.669C549.931,195.65,550.673,196.392,551.587,196.392z M553.244,193.079v-79.382V75.32
			V6.723h250.484v121.768v64.589h-70.018h-84.828h-95.429L553.244,193.079L553.244,193.079z"/>
		<path class="st4" d="M739.829,134.581h-3.865v3.313h5.521c0.914,0,1.656-0.742,1.656-1.656v-5.521h-3.313L739.829,134.581
			L739.829,134.581z"/>
		<rect x="659.789" y="134.581" class="st4" width="11.798" height="3.313"/>
		<rect x="710.573" y="134.581" class="st4" width="11.799" height="3.313"/>
		<rect x="685.18" y="134.581" class="st4" width="11.799" height="3.313"/>
		<path class="st4" d="M642.331,134.581v-3.865h-3.313v5.521c0,0.914,0.742,1.656,1.656,1.656h5.521v-3.313L642.331,134.581
			L642.331,134.581z"/>
		<rect x="639.019" y="110.28" class="st4" width="3.313" height="9.496"/>
		<rect x="639.019" y="89.844" class="st4" width="3.313" height="9.496"/>
		<rect x="639.019" y="69.406" class="st4" width="3.313" height="9.498"/>
		<path class="st4" d="M642.331,54.6h3.865v-3.313h-5.521c-0.914,0-1.656,0.742-1.656,1.656v5.521h3.313L642.331,54.6L642.331,54.6z
			"/>
		<rect x="710.574" y="51.288" class="st4" width="11.798" height="3.313"/>
		<rect x="685.182" y="51.288" class="st4" width="11.799" height="3.313"/>
		<rect x="659.789" y="51.288" class="st4" width="11.799" height="3.313"/>
		<path class="st4" d="M739.829,58.465h3.313v-5.521c0-0.914-0.742-1.656-1.656-1.656h-5.521V54.6h3.865L739.829,58.465
			L739.829,58.465z"/>
		<rect x="739.829" y="110.278" class="st4" width="3.313" height="9.498"/>
		<rect x="739.829" y="69.406" class="st4" width="3.313" height="9.496"/>
		<rect x="739.829" y="89.842" class="st4" width="3.313" height="9.496"/>
	</g>
	<g>
		<path class="st3" d="M642.051,520.238c-0.224-10.384-1.477-21.451-6.762-32.954c-1.112-2.377-2.216-3.052-2.722-3.052
			c-0.059,0-0.11,0.009-0.152,0.026c-0.526,0.209-1.118,1.628-0.426,3.705c1.849,5.547,2.594,9.591,2.625,9.761
			c0.086,0.47-0.037,0.958-0.336,1.331c-0.3,0.375-0.747,0.599-1.227,0.619c-8.873,0.356-10.66,1.95-11.508,5.625
			c-0.627,2.711-0.034,5.901,1.44,7.755c0.836,1.048,1.887,1.581,3.127,1.581c0.76,0,1.422,0.518,1.607,1.255
			c0.631,2.525,1.235,4.416,1.787,5.889L642.051,520.238z"/>
		<path class="st3" d="M705.663,510.11c0.247,1.48,0.37,3.062,0.425,4.525h15.939c-0.143-1.673-0.133-3.521,0.16-5.327
			c-1.463-0.442-2.234-1.425-2.603-2.098c-1.403-2.562-0.439-6.56,1.304-8.946c0.763-1.046,1.064-2.189,0.73-2.78
			c-0.327-0.578-1.473-0.835-3.046-0.695c-0.672,0.06-1.303-0.287-1.613-0.878c-0.313-0.591-0.238-1.311,0.187-1.827
			c1.281-1.553,1.319-2.456,1.362-3.502c0.05-1.184,0.11-2.659,1.876-4.175c0.953-0.82-0.01-2.707-1.473-5.284
			c-0.34-0.599-0.716-1.268-1.06-1.966c-4.582,0.556-16.409,1.949-20.904,2.076c-0.03,0-0.058,0.002-0.085,0.002
			c0.459,1.02,1.983,2.853,2.614,3.615c1.276,1.533,1.803,2.17,1.693,3.103c-0.053,0.451-0.318,0.917-0.682,1.188
			c-7.193,6.215-7.443,8.797-5.354,11.359c1.184,1.454,2.822,2.739,4.406,3.981C702.282,504.634,705.12,506.86,705.663,510.11z
			 M708.781,482.324c0.732,0,1.325,0.593,1.325,1.325s-0.593,1.325-1.325,1.325c-0.732,0-1.325-0.593-1.325-1.325
			S708.049,482.324,708.781,482.324z M698.798,494.118c0-1.645,1.333-2.978,2.978-2.978s2.979,1.334,2.979,2.978
			c0,1.645-1.333,2.979-2.979,2.979C700.131,497.097,698.798,495.763,698.798,494.118z"/>
		<path class="st6" d="M742.567,617.87l-0.188-19.65c0,0,0,0,0,0l-0.707-35.8c-0.014-0.748,0.476-1.415,1.195-1.624
			c0.722-0.207,1.49,0.093,1.877,0.733l12.629,20.82c0.36,0.593,0.312,1.348-0.12,1.889l-11.556,14.52l0.172,17.928l6.989,2.517
			c3.115-3.742,15.289-18.301,22.89-26.535c7.986-8.652,3.157-17.38-2.299-23.177h0.001c-1.722-1.827-4.37-5.223-7.723-9.521
			c-7.932-10.171-19.92-25.541-28.223-30.523c-3.471-2.085-7.786-3.576-10.051-4.279c-2.107-0.653-3.606-2.579-3.729-4.788
			l-0.135-2.433h-18.772l-0.641,2.562c-0.469,1.878-2.085,3.3-4.023,3.537c-13.992,1.734-20.025,4.537-26.006,16.828
			c-6.388,13.132-13.132,29.794-13.2,29.962c-0.274,0.677-0.962,1.081-1.685,1.029c-0.728-0.067-1.326-0.602-1.473-1.318
			c-2.559-12.474-11.055-40.831-13.011-47.308l-17.722,2.176c6.987,32.792,12.015,50.875,15.702,64.14l0.373,1.341
			c1.517,5.461,5.121,9.179,9.642,9.944c5.037,0.865,10.438-2.066,14.43-7.813l10.343-16.296l9.104-15.198l1.421,0.852l0-0.001
			l0,0.001l1.421,0.852l-8.894,14.847l-2.136,68.621c20.841,0.927,56.024,1.585,64.102,1.73L742.567,617.87L742.567,617.87z"/>
		<path class="st2" d="M754.665,622.211c0.147-0.177,14.848-17.906,23.518-27.296c7.581-8.215,6.756-18.049-2.32-27.693h-0.001
			c-1.615-1.717-4.353-5.228-7.522-9.291c-8.566-10.984-20.298-26.026-29.13-31.325c-3.58-2.15-7.834-3.688-10.772-4.6
			c-0.805-0.252-1.358-0.962-1.404-1.812l-0.222-3.996c-0.046-0.814-0.681-1.438-1.473-1.528c-0.17-1.751-0.143-3.638,0.209-5.34
			c5.024-1.075,14.323-6.484,14.353-12.673c0.013-2.778-0.88-4.324-1.814-5.18c1.997-3.977,0.833-7.796-3.688-12.461
			c-0.93-0.958-1.825-1.967-2.698-2.95c-3.893-4.384-7.917-8.916-12.902-6.023c-1.73,1.005-2.175,2.413-2.009,3.906
			c-4.919,0.593-15.826,1.86-19.937,1.973c-2.025,0.056-2.856,0.966-3.197,1.719c-0.992,2.195,1.272,4.921,3.271,7.326
			c0.134,0.162,0.285,0.343,0.429,0.52c-4.971,4.43-9.321,9.549-4.792,15.107c1.418,1.74,3.204,3.14,4.93,4.494
			c2.351,1.844,4.571,3.586,4.902,5.571c0.225,1.348,0.331,2.814,0.379,4.181c-0.412,0.214-0.738,0.578-0.857,1.051l-0.954,3.817
			c-0.139,0.556-0.628,0.979-1.215,1.052c-14.347,1.777-21.878,4.893-28.578,18.666c-4.32,8.879-8.795,19.347-11.294,25.328
			c-3.857-15.983-12.237-43.501-12.332-43.81c-0.235-0.768-0.991-1.268-1.786-1.16l-0.396,0.049
			c-0.258-10.327-1.607-22.052-7.068-33.942c-2.194-4.684-5.108-5.502-7.107-4.708c-2.491,0.994-3.497,4.361-2.34,7.831
			c1.044,3.131,1.726,5.793,2.112,7.458c-7.121,0.49-11.277,2.157-12.645,8.083c-0.851,3.686-0.017,7.932,2.076,10.563
			c1.182,1.484,2.687,2.409,4.406,2.717c0.444,1.675,0.887,3.11,1.325,4.361l-1.261,0.155c-0.46,0.056-0.877,0.304-1.146,0.682
			c-0.27,0.377-0.369,0.852-0.273,1.305c7.206,34.014,12.574,53.327,16.127,66.107l0.373,1.344c1.87,6.729,6.46,11.335,12.28,12.323
			c6.351,1.065,12.961-2.362,17.744-9.248l7.15-11.264l-1.965,63.161l-8.042,169.082c-0.021,0.451,0.143,0.893,0.455,1.221
			c0.313,0.328,0.746,0.513,1.199,0.513h3.624v10.973c-1.607,4.858-6.394,7.015-18.122,8.186c-4.39,0.44-5.83,2.924-5.731,4.919
			c0.121,2.403,2.528,4.887,6.347,4.887h31.848c3.512,0,6.37-2.857,6.37-6.371v-10.384v-0.625v-11.585h1.298
			c0.859,0,1.575-0.656,1.65-1.512c2.037-23.32,6.973-75.48,13.12-110.277c0.36,41.332,3.468,109.345,3.505,110.132
			c0.04,0.867,0.743,1.557,1.611,1.581l4.225,0.112v10.947c-1.764,5.644-6.826,7.047-18.122,8.177
			c-4.39,0.44-5.83,2.924-5.731,4.919c0.121,2.403,2.528,4.887,6.347,4.887h31.847c3.513,0,6.371-2.857,6.371-6.371v-10.384v-0.625
			v-11.003l2.461,0.065c0.014,0,0.029,0,0.043,0c0.44,0,0.864-0.175,1.174-0.49c0.321-0.321,0.496-0.763,0.481-1.221
			c-0.028-0.869-2.763-87.503,0.148-128.807c1.566-22.218,2.164-32.346,2.257-37.088c0.051-0.161,0.099-0.323,0.099-0.495v-3.619
			c1.936,1.219,3.966,1.891,6.036,1.974c0.15,0.006,0.3,0.009,0.45,0.009c3.671,0,7.193-1.799,10.215-5.221
			c2.743-3.11,3.803-5.857,3.238-8.402c-0.603-2.715-2.962-4.887-7.424-6.83c-2.546-1.109-3.993-2.456-4.3-4.003
			c-0.094-0.474-0.059-0.945,0.024-1.406C754.322,622.521,754.513,622.393,754.665,622.211z M760.096,641.071
			c-2.463,2.789-5.235,4.246-8.049,4.093c-2.091-0.084-4.18-1.057-6.168-2.814v-22.138l4.981,1.793
			c-0.157,0.836-0.199,1.724-0.019,2.645c0.523,2.683,2.619,4.844,6.231,6.416c3.315,1.445,5.169,2.963,5.513,4.512
			C762.9,636.995,762.062,638.843,760.096,641.071z M721.818,827.206v-9.508l14.086,0.371v9.403L721.818,827.206z M675.699,827.206
			v-9.632h14.086v9.897L675.699,827.206z M678.959,577.602L678.959,577.602L678.959,577.602z M742.567,648.436
			c-8.079-0.144-43.262-0.802-64.102-1.73l2.136-68.621l8.894-14.847l-1.421-0.852l-1.421-0.852l-9.104,15.198l-10.343,16.296
			c-3.992,5.747-9.393,8.678-14.43,7.813c-4.521-0.766-8.125-4.484-9.642-9.944l-0.373-1.341
			c-3.688-13.265-8.715-31.349-15.702-64.14l17.722-2.176c1.956,6.476,10.452,34.834,13.011,47.308
			c0.147,0.716,0.745,1.251,1.473,1.318c0.724,0.052,1.411-0.352,1.685-1.029c0.068-0.168,6.812-16.83,13.2-29.962
			c5.98-12.291,12.013-15.094,26.006-16.828c1.938-0.237,3.554-1.658,4.023-3.537l0.641-2.562h18.772l0.135,2.433
			c0.123,2.208,1.622,4.134,3.729,4.788c2.264,0.703,6.58,2.193,10.051,4.279c8.303,4.982,20.291,20.352,28.223,30.523
			c3.352,4.298,6.001,7.695,7.723,9.521h-0.001c5.456,5.797,10.285,14.525,2.299,23.177c-7.601,8.234-19.775,22.793-22.89,26.535
			l-6.989-2.517l-0.172-17.928l11.556-14.52c0.431-0.541,0.48-1.296,0.12-1.889l-12.629-20.82c-0.387-0.641-1.155-0.94-1.877-0.733
			c-0.719,0.209-1.209,0.875-1.195,1.624l0.707,35.8c0,0,0,0,0,0.001l0.188,19.65V648.436z M626.109,514.634
			c-1.24,0-2.291-0.533-3.127-1.581c-1.474-1.855-2.066-5.044-1.44-7.755c0.847-3.675,2.634-5.269,11.508-5.625
			c0.48-0.019,0.927-0.244,1.227-0.619c0.3-0.373,0.423-0.86,0.336-1.331c-0.03-0.17-0.775-4.214-2.625-9.761
			c-0.692-2.077-0.1-3.496,0.426-3.705c0.042-0.017,0.093-0.026,0.152-0.026c0.506,0,1.61,0.675,2.722,3.052
			c5.285,11.503,6.537,22.57,6.762,32.954l-12.548,1.541c-0.552-1.473-1.156-3.364-1.787-5.889
			C627.532,515.152,626.87,514.634,626.109,514.634z M695.132,498.501c-2.089-2.562-1.84-5.144,5.354-11.359
			c0.363-0.272,0.629-0.737,0.682-1.188c0.11-0.934-0.417-1.57-1.693-3.103c-0.631-0.761-2.154-2.594-2.614-3.615
			c0.027,0,0.055-0.002,0.085-0.002c4.495-0.127,16.322-1.519,20.904-2.076c0.344,0.698,0.72,1.367,1.06,1.966
			c1.463,2.577,2.426,4.464,1.473,5.284c-1.766,1.516-1.827,2.991-1.876,4.175c-0.043,1.046-0.081,1.95-1.362,3.502
			c-0.425,0.515-0.499,1.236-0.187,1.827c0.31,0.591,0.941,0.938,1.613,0.878c1.573-0.14,2.719,0.117,3.046,0.695
			c0.334,0.591,0.033,1.734-0.73,2.78c-1.743,2.385-2.707,6.384-1.304,8.946c0.369,0.673,1.139,1.656,2.603,2.098
			c-0.292,1.807-0.302,3.654-0.16,5.327h-15.939c-0.055-1.463-0.178-3.044-0.425-4.525c-0.544-3.25-3.38-5.476-6.125-7.628
			C697.954,501.24,696.316,499.954,695.132,498.501z M745.106,568.511l8.836,14.568L745.6,593.56L745.106,568.511z"/>
		<path class="st2" d="M704.755,494.118c0-1.645-1.333-2.978-2.979-2.978c-1.645,0-2.978,1.334-2.978,2.978
			c0,1.645,1.333,2.979,2.978,2.979C703.421,497.097,704.755,495.763,704.755,494.118z"/>
		<path class="st2" d="M708.781,484.973c0.732,0,1.325-0.593,1.325-1.325s-0.593-1.325-1.325-1.325
			c-0.732,0-1.325,0.593-1.325,1.325S708.049,484.973,708.781,484.973z"/>
	</g>
	<g>
		<path class="st3" d="M389.289,508.249c0.125,0.496,0.914,1.08,2.021,0.839c3.76-0.817,5.849-1.216,5.849-1.216
			c0.899-0.181,1.76,0.41,1.937,1.305c0.177,0.893-0.401,1.762-1.294,1.943c-0.712,0.147-2.878,0.589-3.184,0.929
			c-0.107,0.567,0.022,0.712,0.091,0.789c0.595,0.671,2.615,0.936,3.862,0.854c0.785-0.03,1.501,0.472,1.699,1.236
			c0.199,0.766-0.169,1.563-0.88,1.909c0,0-0.817,0.453-0.708,0.882c0.194,0.757,0.581,1.331,3.492,1.16
			c0.046-0.002,0.092-0.004,0.138-0.004c2.464,0,4.171,3.678,5.293,7.531l8.634-0.41l-5.94-18.232
			c-1.828-4.732-9.085-3.74-19.406-0.772C390.001,507.248,389.161,507.735,389.289,508.249z"/>
		<path class="st3" d="M368.221,488.239c-1.675,0.263-1.86,2.286-1.881,2.687c-0.072,1.421,0.538,3.129,2.044,3.526
			c3.625,0.954,3.781,7.815,2.268,23.414c3.176-0.209,5.758-0.023,8.047,0.825c0.485-3.308,1.49-7.991,3.491-10.161
			c0.133-0.142,0.289-0.261,0.461-0.349c8.064-4.134,7.853-8.538,7.631-13.201c-0.03-0.636,0.306-1.234,0.866-1.536l3.602-1.952
			c-1.129-1.227-2.733-3.119-4.411-5.568c-1.121-1.639-1.802-3.326-2.461-4.954c-0.543-1.343-1.033-2.553-1.702-3.592
			C382.611,482.52,374.654,487.225,368.221,488.239z M386.405,501.306h-5.43v-3.313h5.43V501.306z M385.081,489.615
			c-0.732,0-1.325-0.593-1.325-1.325s0.593-1.325,1.325-1.325c0.732,0,1.325,0.593,1.325,1.325S385.812,489.615,385.081,489.615z"/>
		<path class="st0" d="M429.489,575.962c-2.138-18.845-7.026-41.232-8.297-46.885l-14.634,0.695l5.233,39.835
			c0.102,0.783-0.36,1.527-1.106,1.784c-0.745,0.257-1.568-0.052-1.967-0.733c-0.129-0.222-13.013-22.319-21-36.924
			c-6.144-11.233-9.28-13.256-17.396-12.564c-0.052,0.508-0.101,0.992-0.156,1.516c-0.387,3.675-0.72,6.847-0.779,8.691
			c-0.1,3.209-3.171,5.45-9.129,6.66c-2.74,0.556-6.578,0.908-10.322,0.908c-0.055,0-0.108-0.003-0.164-0.003
			c-3.672,14.916-3.384,38.147-3.061,63.494c0.184,14.512,0.376,29.52-0.148,44.327c-1.147,32.431-7.335,57.588-12.794,79.782
			c-4.228,17.193-7.902,32.127-8.167,46.559h79.834c-0.362-10.33-2.391-64.557-5.687-86.388
			c-3.497-23.171-6.596-93.358-6.891-100.187c-7.601-8.684-18.561-23.399-18.672-23.549l1.329-0.988l0-0.001l0,0l1.329-0.987
			c0.112,0.151,11.369,15.267,18.886,23.781l-0.004,0.003c0.008,0.009,0.019,0.013,0.026,0.023
			c6.431,7.591,18.835,11.327,26.54,8.003C427.973,590.36,430.46,584.533,429.489,575.962z"/>
		<path class="st2" d="M432.78,575.587c-2.477-21.836-8.605-48.341-8.666-48.606c-0.181-0.779-0.876-1.326-1.692-1.279l-2.754,0.13
			l-6.251-19.178c-2.958-7.677-13.243-5.658-20.778-3.597c1.036-2.472,1.086-4.936,1-7.195l4.621-2.502
			c0.471-0.255,0.788-0.72,0.855-1.251c0.066-0.531-0.129-1.063-0.523-1.425c-0.026-0.024-2.676-2.48-5.517-6.632
			c-0.919-1.341-1.532-2.857-2.124-4.324c-0.799-1.975-1.617-3.99-3.147-5.662c0.13-0.477,0.225-0.952,0.255-1.422
			c0.031-0.505-0.169-0.996-0.545-1.335c-4.856-4.369-19.184-10.423-30.144,0.032c-7.504,7.154-9.115,17.663-10.537,26.936
			c-0.554,3.615-1.078,7.028-1.903,10.013c-1.064,3.847-2.463,7.876-3.815,11.771c-3.046,8.773-4.584,13.464-3.47,15.875
			c0.801,1.733,4.481,2.602,8.846,2.888c-3.693,15.568-3.408,38.613-3.089,63.65c0.184,14.475,0.375,29.44-0.146,44.17
			c-1.134,32.088-7.279,57.069-12.7,79.107c-4.442,18.06-8.278,33.658-8.278,49.007c0,0.914,0.742,1.656,1.656,1.656h33.075
			c1.427,20.906,2.833,49.032,1.12,60.912c-0.119,0.181-0.21,0.383-0.252,0.608l-0.859,4.596c-0.266,1.423,0.111,2.879,1.037,3.994
			c0.925,1.115,2.288,1.755,3.737,1.755h2.865h24.494h6.349h4.222h2.72c4.525,0,7.065-1.089,7.55-3.235
			c0.254-1.126,0.044-3.317-4.225-5.353c-1.372-0.653-2.835-1.503-4.384-2.4c-2.017-1.171-4.104-2.381-6.403-3.42
			c-1.486-0.675-2.947-0.628-4.109,0.123c-0.128,0.083-0.225,0.206-0.342,0.304c-5.709-2.347-12.71-6.29-12.183-10.68
			c0.608-5.064,2.896-28.372,4.726-47.204h24.085c0.449,0,0.878-0.181,1.19-0.505c0.312-0.321,0.48-0.757,0.465-1.206
			c-0.021-0.638-2.12-64.233-5.781-88.486c-3.133-20.755-5.957-79.828-6.695-96.177c7.748,6.554,19.357,9.23,27.277,5.812
			C427.691,594.089,434.313,589.111,432.78,575.587z M422.294,592.814c-7.706,3.323-20.109-0.412-26.54-8.003
			c-0.008-0.009-0.018-0.014-0.026-0.023l0.004-0.003c-7.517-8.514-18.773-23.63-18.886-23.781l-1.329,0.987v0l-1.329,0.988
			c0.111,0.151,11.071,14.865,18.672,23.549c0.295,6.829,3.394,77.016,6.891,100.187c3.296,21.831,5.325,76.058,5.687,86.388
			h-79.834c0.265-14.432,3.939-29.367,8.167-46.559c5.46-22.194,11.647-47.351,12.794-79.782
			c0.524-14.807,0.332-29.815,0.148-44.327c-0.323-25.348-0.611-48.578,3.061-63.494c0.055,0,0.108,0.003,0.164,0.003
			c3.744,0,7.582-0.352,10.322-0.908c5.958-1.21,9.029-3.451,9.129-6.66c0.058-1.844,0.391-5.016,0.779-8.691
			c0.055-0.524,0.103-1.008,0.156-1.516c8.116-0.692,11.252,1.331,17.396,12.564c7.987,14.605,20.871,36.701,21,36.924
			c0.399,0.682,1.222,0.99,1.967,0.733c0.746-0.257,1.209-1.001,1.106-1.784l-5.233-39.835l14.634-0.695
			c1.27,5.653,6.158,28.041,8.297,46.885C430.46,584.533,427.973,590.36,422.294,592.814z M388.89,837.25
			c-0.08,0.42-0.137,0.859-0.144,1.325l-0.064,0.402l-27.16-2.232c1.544-12.942,0.206-39.998-1.181-60.329h19.398
			c-1.823,18.757-4.086,41.799-4.687,46.812C374.247,829.947,382.672,834.691,388.89,837.25z M390.34,485.925
			c1.678,2.45,3.282,4.341,4.411,5.568l-3.602,1.952c-0.56,0.302-0.896,0.899-0.866,1.536c0.222,4.663,0.432,9.067-7.631,13.201
			c-0.172,0.088-0.329,0.207-0.461,0.349c-2.001,2.17-3.006,6.853-3.491,10.161c-2.289-0.848-4.871-1.034-8.047-0.825
			c1.514-15.6,1.358-22.46-2.268-23.414c-1.506-0.397-2.117-2.105-2.044-3.526c0.021-0.401,0.206-2.424,1.881-2.687
			c6.432-1.015,14.39-5.719,17.956-10.86c0.669,1.039,1.159,2.249,1.702,3.592C388.538,482.6,389.218,484.286,390.34,485.925z
			 M410.297,507.763l5.94,18.232l-8.634,0.41c-1.122-3.852-2.83-7.531-5.293-7.531c-0.046,0-0.092,0.002-0.138,0.004
			c-2.91,0.17-3.297-0.403-3.492-1.16c-0.109-0.429,0.71-0.882,0.71-0.882c0.71-0.345,1.078-1.143,0.879-1.909
			c-0.198-0.763-0.914-1.266-1.699-1.236c-1.247,0.082-3.266-0.183-3.862-0.854c-0.069-0.078-0.197-0.222-0.091-0.789
			c0.306-0.341,2.473-0.783,3.184-0.929c0.893-0.181,1.471-1.05,1.294-1.943c-0.177-0.895-1.037-1.486-1.937-1.305
			c0,0-2.089,0.399-5.849,1.216c-1.106,0.242-1.896-0.343-2.021-0.839c-0.128-0.513,0.712-1.001,1.601-1.257
			C401.212,504.024,408.469,503.032,410.297,507.763z M407.429,561.828c-4.48-7.757-11.662-20.281-16.803-29.682
			c-3.259-5.96-5.913-9.624-8.811-11.766c0.417-3.383,1.312-7.698,2.643-9.404c0.7-0.368,1.331-0.743,1.93-1.121
			c0.782,1.554,2.615,2.795,4.866,2.583c0.002,1.216,0.506,2.066,0.977,2.599c0.833,0.938,2.057,1.438,3.231,1.701
			c-0.139,0.539-0.157,1.143,0.011,1.799c0.973,3.804,4.918,3.763,6.661,3.66c0.543,0.481,1.356,2.292,2.061,4.457
			c-0.298,0.094-0.577,0.241-0.781,0.484c-0.298,0.356-0.432,0.82-0.372,1.279L407.429,561.828z"/>
		<path class="st2" d="M385.081,486.966c-0.732,0-1.325,0.593-1.325,1.325s0.593,1.325,1.325,1.325c0.732,0,1.325-0.593,1.325-1.325
			S385.812,486.966,385.081,486.966z"/>
		<rect x="380.974" y="497.994" class="st2" width="5.43" height="3.313"/>
	</g>
</g>
</svg>
