<svg width="150" height="42" viewBox="0 0 150 42" fill="none" xmlns="http://www.w3.org/2000/svg">
<g clip-path="url(#clip0_1510_8403)">
<path d="M31.7444 8.65941C29.3186 7.49949 26.7249 6.65648 24.0132 6.17651C23.6801 6.79185 23.291 7.61948 23.0228 8.2779C20.1402 7.83485 17.284 7.83485 14.4545 8.2779C14.1862 7.61948 13.7883 6.79185 13.4523 6.17651C10.7377 6.65648 8.14094 7.50257 5.71515 8.66556C0.822321 16.2219 -0.504049 23.5906 0.159136 30.8547C3.40432 33.3314 6.54929 34.8359 9.64121 35.8205C10.4046 34.7467 11.0855 33.6053 11.672 32.4023C10.5549 31.9685 9.48499 31.4331 8.474 30.8116C8.74222 30.6086 9.00455 30.3963 9.25803 30.1778C15.4242 33.1253 22.1238 33.1253 28.2163 30.1778C28.4727 30.3963 28.735 30.6086 29.0003 30.8116C27.9864 31.4362 26.9135 31.9715 25.7964 32.4054C26.3829 33.6053 27.0609 34.7498 27.8272 35.8236C30.9221 34.839 34.07 33.3345 37.3152 30.8547C38.0933 22.4338 35.9859 15.1328 31.7444 8.65941ZM12.5121 26.3873C10.661 26.3873 9.14308 24.6213 9.14308 22.4707C9.14308 20.3201 10.6286 18.551 12.5121 18.551C14.3955 18.551 15.9135 20.317 15.881 22.4707C15.884 24.6213 14.3955 26.3873 12.5121 26.3873ZM24.9623 26.3873C23.1112 26.3873 21.5933 24.6213 21.5933 22.4707C21.5933 20.3201 23.0788 18.551 24.9623 18.551C26.8457 18.551 28.3637 20.317 28.3312 22.4707C28.3312 24.6213 26.8457 26.3873 24.9623 26.3873Z" fill="#23272A"/>
<path d="M50.3594 13.7397H58.406C60.3455 13.7397 61.9843 14.0566 63.3283 14.6874C64.6694 15.3181 65.6745 16.198 66.3407 17.3241C67.0068 18.4502 67.3428 19.7393 67.3428 21.1915C67.3428 22.6129 66.995 23.9021 66.2994 25.0558C65.6038 26.2127 64.5456 27.1265 63.122 27.8003C61.6984 28.4741 59.9358 28.8125 57.8283 28.8125H50.3594V13.7397ZM57.7458 24.982C59.0515 24.982 60.0566 24.6405 60.7581 23.9605C61.4596 23.2775 61.8104 22.3483 61.8104 21.17C61.8104 20.0777 61.4979 19.207 60.8731 18.5548C60.2482 17.9025 59.3021 17.5733 58.0376 17.5733H55.5204V24.982H57.7458Z" fill="#23272A"/>
<path d="M79.3912 28.7941C78.2771 28.4926 77.272 28.0557 76.3789 27.4804V23.9052C77.0539 24.4498 77.9588 24.899 79.0935 25.2528C80.2283 25.6036 81.3248 25.779 82.3859 25.779C82.8811 25.779 83.2554 25.7113 83.5089 25.5759C83.7624 25.4405 83.8891 25.2775 83.8891 25.0898C83.8891 24.8744 83.8213 24.696 83.6828 24.5514C83.5442 24.4067 83.276 24.2868 82.8781 24.1852L80.4022 23.6037C78.9845 23.2591 77.9794 22.7822 77.3811 22.17C76.7827 21.5608 76.485 20.7609 76.485 19.7702C76.485 18.9364 76.7444 18.2134 77.2691 17.5949C77.7908 16.9765 78.5335 16.4996 79.4974 16.1643C80.4612 15.8258 81.5871 15.6566 82.8811 15.6566C84.0365 15.6566 85.0946 15.7858 86.0585 16.0443C87.0223 16.3027 87.8181 16.6319 88.4518 17.035V20.4163C87.8034 20.0132 87.0606 19.6963 86.2117 19.4563C85.3658 19.2194 84.4963 19.1025 83.6002 19.1025C82.3063 19.1025 81.6608 19.3333 81.6608 19.7917C81.6608 20.0071 81.761 20.1671 81.9614 20.2747C82.1619 20.3824 82.5303 20.4932 83.0638 20.6101L85.127 20.9978C86.474 21.2408 87.4791 21.6685 88.1394 22.2777C88.7996 22.8869 89.1297 23.7883 89.1297 24.9821C89.1297 26.2897 88.5845 27.3265 87.4909 28.0957C86.3974 28.8649 84.847 29.2495 82.8369 29.2495C81.6549 29.2464 80.5054 29.0956 79.3912 28.7941Z" fill="#23272A"/>
<path d="M93.9961 28.3417C92.8142 27.7387 91.9211 26.9203 91.3257 25.8865C90.7303 24.8527 90.4297 23.6897 90.4297 22.3975C90.4297 21.1053 90.7392 19.9485 91.3582 18.9301C91.9771 17.9117 92.8849 17.1117 94.0816 16.5303C95.2783 15.9488 96.7078 15.6595 98.3732 15.6595C100.436 15.6595 102.149 16.1118 103.511 17.0164V20.9576C103.03 20.613 102.47 20.3331 101.831 20.1177C101.191 19.9023 100.507 19.7946 99.7762 19.7946C98.497 19.7946 97.4978 20.0377 96.7756 20.5269C96.0535 21.0161 95.691 21.653 95.691 22.4437C95.691 23.219 96.0417 23.8528 96.7432 24.3512C97.4447 24.8466 98.4616 25.0958 99.7968 25.0958C100.484 25.0958 101.161 24.9912 101.831 24.785C102.497 24.5758 103.071 24.3205 103.552 24.0189V27.831C102.04 28.7786 100.286 29.2524 98.2906 29.2524C96.6106 29.2462 95.1781 28.9447 93.9961 28.3417Z" fill="#23272A"/>
<path d="M108.66 28.3419C107.469 27.7388 106.561 26.9143 105.936 25.8651C105.311 24.816 104.996 23.6468 104.996 22.3546C104.996 21.0624 105.309 19.9086 105.936 18.8964C106.564 17.8842 107.466 17.0904 108.651 16.515C109.833 15.9397 111.245 15.6536 112.881 15.6536C114.516 15.6536 115.928 15.9397 117.11 16.515C118.292 17.0904 119.194 17.878 119.813 18.8841C120.432 19.8902 120.742 21.0439 120.742 22.3515C120.742 23.6437 120.432 24.8129 119.813 25.862C119.194 26.9112 118.289 27.7358 117.098 28.3388C115.908 28.9418 114.502 29.2433 112.878 29.2433C111.254 29.2433 109.848 28.9449 108.66 28.3419ZM114.929 24.5206C115.43 23.9976 115.684 23.3053 115.684 22.4438C115.684 21.5824 115.433 20.8963 114.929 20.3886C114.428 19.8779 113.744 19.6225 112.878 19.6225C111.996 19.6225 111.307 19.8779 110.803 20.3886C110.302 20.8993 110.051 21.5824 110.051 22.4438C110.051 23.3053 110.302 23.9976 110.803 24.5206C111.304 25.0436 111.996 25.3082 112.878 25.3082C113.744 25.3052 114.428 25.0436 114.929 24.5206Z" fill="#23272A"/>
<path d="M133.136 16.4534V21.1054C132.611 20.7454 131.933 20.567 131.093 20.567C129.994 20.567 129.145 20.9146 128.555 21.61C127.963 22.3053 127.668 23.3883 127.668 24.8528V28.8156H122.613V16.2165H127.565V20.2224C127.839 18.7579 128.284 17.6779 128.897 16.9795C129.507 16.2842 130.297 15.9365 131.258 15.9365C131.986 15.9365 132.611 16.1088 133.136 16.4534Z" fill="#23272A"/>
<path d="M149.934 13.3091V28.8156H144.879V25.9943C144.451 27.0558 143.803 27.8649 142.93 28.4187C142.058 28.9695 140.979 29.2464 139.7 29.2464C138.556 29.2464 137.56 28.9572 136.708 28.3757C135.856 27.7942 135.199 26.9973 134.736 25.9851C134.276 24.9728 134.044 23.8283 134.044 22.5484C134.029 21.2285 134.273 20.044 134.778 18.9948C135.279 17.9457 135.989 17.1273 136.903 16.5396C137.816 15.952 138.86 15.6566 140.03 15.6566C142.438 15.6566 144.053 16.7488 144.879 18.9302V13.3091H149.934ZM144.124 24.4344C144.64 23.9114 144.896 23.2314 144.896 22.4007C144.896 21.5977 144.646 20.9424 144.145 20.4409C143.644 19.9394 142.957 19.6871 142.093 19.6871C141.241 19.6871 140.56 19.9424 140.051 20.4532C139.541 20.9639 139.287 21.6254 139.287 22.4438C139.287 23.2622 139.541 23.9298 140.051 24.4467C140.56 24.9636 141.233 25.2221 142.073 25.2221C142.924 25.219 143.608 24.9575 144.124 24.4344Z" fill="#23272A"/>
<path d="M71.6021 17.5578C72.994 17.5578 74.1222 16.4999 74.1222 15.1949C74.1222 13.8899 72.994 12.832 71.6021 12.832C70.2103 12.832 69.082 13.8899 69.082 15.1949C69.082 16.4999 70.2103 17.5578 71.6021 17.5578Z" fill="#23272A"/>
<path d="M69.0781 19.1855C70.6226 19.8809 72.5385 19.9116 74.1183 19.1855V28.8833H69.0781V19.1855Z" fill="#23272A"/>
</g>
<defs>
<clipPath id="clip0_1510_8403">
<rect width="150" height="29.6471" fill="white" transform="translate(0 6.17651)"/>
</clipPath>
</defs>
</svg>
