<svg width="446" height="512" viewBox="0 0 446 512" fill="#0D112A" 
  xmlns="http://www.w3.org/2000/svg">
  <path d="M175.555 221.751C161.136 221.751 149.752 234.093 149.752 249.151C149.752 264.209 161.389 276.55 175.555 276.55C189.974 276.55 201.358 264.209 201.358 249.151C201.611 234.093 189.974 221.751 175.555 221.751ZM267.89 221.751C253.47 221.751 242.086 234.093 242.086 249.151C242.086 264.209 253.723 276.55 267.89 276.55C282.308 276.55 293.693 264.209 293.693 249.151C293.693 234.093 282.308 221.751 267.89 221.751Z"/>
  <path d="M390.839 14.6526H51.8589C23.2733 14.6526 0 37.3616 0 65.5012V399.226C0 427.367 23.2733 450.075 51.8589 450.075H338.729L325.32 404.41L357.7 433.784L388.311 461.429L442.699 508.328V65.5012C442.699 37.3616 419.424 14.6526 390.839 14.6526ZM293.193 337.023C293.193 337.023 284.086 326.41 276.497 317.028C309.636 307.898 322.285 287.656 322.285 287.656C311.912 294.32 302.048 299.011 293.193 302.219C280.544 307.403 268.402 310.857 256.512 312.832C232.227 317.277 209.966 316.043 190.993 312.586C176.574 309.87 164.178 305.923 153.806 301.973C147.988 299.752 141.664 297.036 135.339 293.579C134.581 293.086 133.821 292.84 133.063 292.345C132.557 292.099 132.304 291.852 132.051 291.606C127.497 289.136 124.968 287.408 124.968 287.408C124.968 287.408 137.11 307.156 169.237 316.536C161.648 325.915 152.288 337.023 152.288 337.023C96.3819 335.294 75.1324 299.503 75.1324 299.503C75.1324 220.022 111.56 155.597 111.56 155.597C147.988 128.939 182.645 129.679 182.645 129.679L185.175 132.641C139.64 145.477 118.643 164.977 118.643 164.977C118.643 164.977 124.209 162.015 133.569 157.819C160.636 146.217 182.139 143.008 190.993 142.268C192.511 142.021 193.776 141.774 195.294 141.774C210.725 139.8 228.18 139.306 246.394 141.281C270.425 143.996 296.228 150.907 322.538 164.977C322.538 164.977 302.552 146.464 259.547 133.629L263.089 129.679C263.089 129.679 297.747 128.939 334.175 155.597C334.175 155.597 370.601 220.022 370.601 299.503C370.601 299.503 349.1 335.294 293.193 337.023Z"/>
</svg>
