<svg width="691" height="512" viewBox="0 0 691 512" fill="white" 
  xmlns="http://www.w3.org/2000/svg">
  <path d="M676.553 79.938C668.62 48.4748 645.181 23.7006 615.46 15.2774C561.595 0 345.5 0 345.5 0C345.5 0 129.405 0 75.5387 15.2774C45.818 23.7006 22.379 48.4748 14.4482 79.938C0 137.001 0 256 0 256C0 256 0 374.998 14.4482 432.063C22.379 463.525 45.818 488.297 75.5387 496.722C129.405 512 345.5 512 345.5 512C345.5 512 561.595 512 615.46 496.722C645.181 488.297 668.62 463.525 676.553 432.063C691 374.998 691 256 691 256C691 256 691 137.001 676.553 79.938ZM274.829 364.055V147.943L455.433 256L274.829 364.055Z" />
</svg>
