<?xml version="1.0" encoding="utf-8"?>
<!-- Generator: Adobe Illustrator 23.0.3, SVG Export Plug-In . SVG Version: 6.00 Build 0)  -->
<svg version="1.1" id="Layer_1" xmlns="http://www.w3.org/2000/svg" xmlns:xlink="http://www.w3.org/1999/xlink" x="0px" y="0px"
	 viewBox="0 0 1000 1000" style="enable-background:new 0 0 1000 1000;" xml:space="preserve">
<style type="text/css">
	.st0{fill:#EBEFF2;}
	.st1{fill:#FF4031;}
	.st2{fill:#FF9F80;}
	.st3{fill:#030A26;}
	.st4{fill:#375A64;}
	.st5{fill:#88A6B0;}
	.st6{fill:#1A2E34;}
</style>
<g>
	<g>
		<path class="st0" d="M572.4911,138.9361c12.9122,0,20.7748,9.3947,24.477,21.8641c1.3638-0.4259,2.8423-0.6762,4.4686-0.6762
			c10.1294,0,15.0845,8.8687,16.0531,18.8246l8.6785-1.2026v24.8985h24.5974c2.1361-14.2746,14.5939-24.2339,27.392-26.6757
			c5.348-1.0205,4.735-6.912,2.9561-9.19c-0.006-0.0077-0.0079-0.0101-0.0139-0.0178c-2.4007-2.4966-3.889-5.8761-3.889-9.5919
			v-4.3633c0-7.6284,6.2414-13.8698,13.8698-13.8698h0.0001c7.6284,0,13.8698,6.2414,13.8698,13.8698v4.3633
			c0,3.7244-1.4947,7.1115-3.9053,9.6097h0.0581c0,0-4.4494,7.5216,4.773,9.584c9.5405,2.1336,23.0415,11.1724,25.0782,26.2817
			h41.5045v-15.5934c-9.6332-0.911-17.1632-9.0159-17.1632-26.0859c0-18.1588,5.6977-36.0545,19.0298-36.0545
			c13.3323,0,19.0298,17.8957,19.0298,36.0545c0,17.07-7.5298,25.1748-17.1632,26.0859v15.5934h27.5347V80.877H553.2435v68.5969
			C557.623,143.0714,563.9426,138.9361,572.4911,138.9361z M743.1419,193.9295h-3.3126v-9.4978h3.3126V193.9295z M743.1419,173.4912
			h-3.3126v-9.4956h3.3126V173.4912z M743.1419,153.055h-3.3126v-9.4956h3.3126V153.055z M735.9647,125.4415h5.5209
			c0.9144,0,1.6563,0.7419,1.6563,1.6563v5.521h-3.3126v-3.8647h-3.8647V125.4415z M710.5736,125.4415h11.7979v3.3126h-11.7979
			V125.4415z M685.1815,125.4415h11.7989v3.3126h-11.7989V125.4415z M659.7894,125.4415h11.799v3.3126h-11.799V125.4415z
			 M639.0189,127.0978c0-0.9144,0.7419-1.6563,1.6563-1.6563h5.5209v3.3126h-3.8647v3.8647h-3.3126V127.0978z M639.0189,143.5594
			h3.3126v9.4978h-3.3126V143.5594z M639.0189,163.9977h3.3126v9.4956h-3.3126V163.9977z M639.0189,184.4339h3.3126v9.4956h-3.3126
			V184.4339z"/>
		<path class="st0" d="M681.0998,166.761c0.006,0.0077,0.0079,0.0101,0.0139,0.0178h0.0023
			C681.1104,166.7731,681.1053,166.7668,681.0998,166.761z"/>
		<path class="st0" d="M443.9023,429.9895c-8.3798-4.0148-22.2064-11.2686-29.553-18.5815
			c-9.6853-9.6414-18.0217-20.1148-25.8783-30.5944c-15.893,0.3019-30.8051,3.6398-45.6147,12.4011
			c-3.4781,2.0574-12.0473,2.9306-15.3853,1.384c-27.2296-12.6154-71.122-10.6855-112.206-1.0756
			c-6.428,1.5034-19.7392-5.5517-19.7392-5.5517l0.0015-0.0879c-0.1326-0.0539-0.2643-0.1127-0.3808-0.2006
			c-0.4022-0.3062-0.6427-0.7785-0.6545-1.2832l-3.5444-160.6363c-0.014-0.6578,0.3623-1.2616,0.9586-1.5377
			c0.262-0.1229,26.5836-12.269,55.8782-18.6936c37.8629-8.2992,64.0951-3.3907,76.1982,14.1186
			c18.9718-24.6609,62.127-25.2841,131.7922-1.9121c0.6621,0.2221,1.1139,0.8346,1.1301,1.5334l0.2174,9.8552
			c4.2147,2.2446,8.8145,5.732,8.8923,9.258l1.8434,44.1429c1.6179,1.0289,3.4171,2.4939,5.4081,4.587
			c17.1236,17.9989,24.3795,27.5234,28.558,36.0453V161.7807H146.0423v240.5112h116.5354c0.9144,0,1.6563,0.7419,1.6563,1.6563
			v26.0413H443.9023z"/>
		<path class="st4" d="M215.265,393.5231c41.084-9.6099,84.9764-11.5398,112.206,1.0756c3.3379,1.5466,11.9071,0.6734,15.3853-1.384
			c14.8095-8.7613,29.7216-12.0992,45.6147-12.4011c-2.5536-3.4061-5.0568-6.8125-7.5386-10.1917
			c-21.0768-0.5688-39.5603,2.6901-52.378,13.7852c-0.0283,0.0245-0.0647,0.0334-0.0942,0.0555
			c-0.0806,0.0609-0.1573,0.1267-0.2498,0.1731c-0.0318,0.0159-0.0666,0.0194-0.0991,0.0329
			c-0.0596,0.0251-0.1189,0.0421-0.1806,0.0598c-0.1147,0.0334-0.2291,0.0539-0.3469,0.062c-0.0384,0.0027-0.0747,0.02-0.1131,0.02
			c-0.0214,0-0.0418-0.0124-0.0632-0.0135c-0.2002-0.0075-0.397-0.0447-0.5835-0.1234c-0.0081-0.0035-0.017-0.0019-0.0251-0.0054
			c-0.0612-0.0272-0.11-0.0706-0.1666-0.1046c-0.0619-0.0364-0.1285-0.062-0.186-0.1068
			c-28.0706-22.0817-128.8735,3.2544-129.8893,3.511c-0.1348,0.0345-0.2717,0.0518-0.4087,0.0518
			c-0.2147,0-0.4223-0.0547-0.621-0.1359l-0.0015,0.0879C195.5258,387.9714,208.8371,395.0265,215.265,393.5231z"/>
		<path class="st4" d="M457.1222,229.1273l1.1518,52.2003c0.2615-0.1607,0.5293-0.3126,0.8155-0.4321
			c1.5939-0.6691,4.5421-1.0551,8.7684,1.6327l-1.8434-44.1429C465.9368,234.8593,461.3369,231.3719,457.1222,229.1273z"/>
		<path class="st0" d="M194.2839,226.7857l3.4743,157.4768c6.6262-1.5959,28.6594-6.6704,52.9559-9.7134
			c36.5102-4.5699,61.7188-2.7583,75.0286,5.3956l-3.1137-141.1141l-0.3494-15.8341
			C297.3846,182.4433,204.8826,222.0713,194.2839,226.7857z M307.1832,343.2327c-0.3192,0.8583-1.2702,1.3047-2.1286,0.9791
			c-21.0422-7.779-45.5695,0.3494-45.8143,0.4335c-0.1768,0.0604-0.3558,0.0884-0.5316,0.0884
			c-0.6912,0-1.3349-0.4356-1.5689-1.1258c-0.2933-0.8648,0.1714-1.8051,1.0374-2.0984c1.0481-0.3559,25.8989-8.5834,48.027-0.4033
			C307.0614,341.4233,307.5002,342.3765,307.1832,343.2327z M271.0917,326.6085c0.0995,1.1176-0.0356,2.1953-0.3123,3.2186
			c9.4619-1.4859,22.8787-2.1232,35.4247,2.5146c0.8572,0.317,1.2961,1.2702,0.9791,2.1264
			c-0.3192,0.8583-1.2702,1.3047-2.1286,0.9791c-12.9371-4.7826-27.1829-3.5514-36.3015-1.8746
			c-1.507,1.6824-3.6128,2.8362-6.04,3.0522c-1.5442,0.1375-3.0143-0.1515-4.3518-0.7101c-0.229-0.0501-0.4459-0.1353-0.6339-0.2744
			c-2.7417-1.3943-4.738-4.1041-5.0309-7.394c-0.3808-4.2766,2.2348-8.1001,6.0973-9.482l-7.3236-44.6221
			c-2.4761,0.0147-4.7266-1.1143-6.1732-2.9612c-19.7578,1.4634-35.3323,9.3761-35.5026,9.4642
			c-0.2426,0.1251-0.5036,0.1855-0.7591,0.1855c-0.5995,0-1.1786-0.3257-1.473-0.895c-0.4205-0.813-0.1035-1.8116,0.7085-2.2321
			c0.7076-0.3662,15.7745-8.0415,35.5638-9.7419c-0.0602-0.292-0.1414-0.5756-0.1685-0.8796
			c-0.0802-0.9008,0.0275-1.7683,0.2382-2.5978l-3.1991-1.3055c-17.5434,2.2047-30.7538,8.9269-30.9097,9.0081
			c-0.2437,0.1251-0.5047,0.1855-0.7613,0.1855c-0.5985,0-1.1775-0.3257-1.4719-0.895c-0.4205-0.8109-0.1035-1.8116,0.7085-2.2321
			c0.5937-0.3073,11.2959-5.7683,26.415-8.5227l-7.9113-3.2283c-10.1518,2.7652-16.8682,6.1767-16.979,6.2344
			c-0.2437,0.1251-0.5047,0.1855-0.7613,0.1855c-0.5985,0-1.1775-0.3257-1.4719-0.895c-0.4205-0.8109-0.1035-1.8116,0.7085-2.2321
			c0.4049-0.2096,5.522-2.8156,13.52-5.3263l-4.2607-1.7386c-1.3759,2.0755-3.6179,3.5508-6.2911,3.7888
			c-4.6672,0.4156-8.7876-3.0311-9.2031-7.6984c-0.4155-4.6672,3.031-8.7876,7.6982-9.2031
			c4.5485-0.4049,8.5506,2.8683,9.1374,7.3544c7.9035-2.7273,19.5304-5.7194,32.5535-5.7194c0.9144,0,1.6563,0.7419,1.6563,1.6563
			c0,0.9144-0.7419,1.6563-1.6563,1.6563c-12.4873,0-23.8005,2.9313-31.4777,5.5742l6.9947,2.8543
			c6.9526-1.8148,15.3687-3.2849,24.483-3.2849c0.9144,0,1.6563,0.7419,1.6563,1.6563c0,0.9144-0.7419,1.6563-1.6563,1.6563
			c-6.8849,0-13.408,0.8967-19.1717,2.1396l8.8893,3.6274c2.3646-0.2719,4.8002-0.46,7.3022-0.5466
			c0.7175-0.299,1.4736-0.5281,2.289-0.6006c4.2848-0.3816,8.0677,2.7827,8.4492,7.0675c0.2986,3.3542-1.5898,6.3751-4.4734,7.7233
			l7.3557,44.8176c2.6783,0.0491,5.1115,1.2263,6.7823,3.146c9.5059-1.6947,23.9279-2.7745,37.3567,2.1898
			c0.8572,0.317,1.2961,1.2702,0.9791,2.1264c-0.3192,0.8583-1.2702,1.3047-2.1286,0.9791
			c-12.0841-4.4673-25.309-3.687-34.4327-2.1983C270.8502,325.1621,271.0255,325.865,271.0917,326.6085z"/>
		<path class="st0" d="M446.649,272.7628c2.8546,3.1507,6.0553,7.0202,8.3393,9.8404l-1.3701-62.0933
			c-67.8453-22.5971-110.9099-21.7517-128.0238,2.5103l3.4581,156.7328c12.8082-9.5986,30.0291-12.7279,49.408-12.4909
			l-0.995-1.3525c-5.384-7.2937-3.3492-14.458,0.8195-18.0273c4.0987-3.5088,10.988-4.2636,17.1398,1.9518
			c19.7396,19.9445,28.7014,18.8187,31.6409,17.4061c3.2414-1.5592,4.0146-5.4023,3.6555-8.4777
			c-0.8551-7.3455-13.6288-21.9933-25.983-36.1602c-12.392-14.21-25.2056-28.9052-27.8043-38.224
			c-1.9176-6.8763-0.4008-11.0321,1.7087-13.5095c-17.4611,0.1132-29.3922,4.0966-34.8798,7.6888
			c-0.7613,0.5025-1.7911,0.2868-2.2925-0.4788c-0.5014-0.7656-0.2868-1.7921,0.4788-2.2946
			c6.2876-4.115,20.5408-8.7653,41.432-8.1236c3.7897-1.3588,8.3987-1.031,11.6555,0.5668c0.0538-3.694,1.2057-6.6862,3.3096-8.6241
			c-28.3185-4.0503-47.2308,1.4766-54.5834,6.2906c-0.7613,0.496-1.79,0.289-2.2925-0.4788
			c-0.5014-0.7656-0.2868-1.7922,0.4788-2.2946c8.2078-5.37,29.9822-11.6626,62.3904-5.8908
			c1.8288-0.0685,3.7784,0.3341,5.7803,1.1456c5.3871,1.1566,11.0421,2.6443,16.9539,4.5122
			C430.2012,262.0093,436.9605,262.0728,446.649,272.7628z M435.359,254.7766c-0.2415,0.6772-0.8788,1.0999-1.5592,1.0999
			c-0.1855,0-0.3731-0.0302-0.5575-0.097c-47.78-17.0632-79.4242-9.1333-89.4795-2.5513c-0.7613,0.5025-1.7911,0.289-2.2925-0.4788
			c-0.5014-0.7656-0.2868-1.7922,0.4788-2.2947c10.5319-6.8904,43.3978-15.2991,92.4082,2.2062
			C435.2189,252.9671,435.6674,253.9161,435.359,254.7766z M435.359,242.1128c-0.2415,0.6772-0.8788,1.0999-1.5592,1.0999
			c-0.1855,0-0.3731-0.0302-0.5575-0.097c-47.7865-17.0697-79.4264-9.1333-89.4795-2.5513c-0.7613,0.496-1.79,0.289-2.2925-0.4788
			c-0.5014-0.7656-0.2868-1.7922,0.4788-2.2946c10.5319-6.8926,43.3956-15.3034,92.4082,2.2062
			C435.2189,240.3034,435.6674,241.2523,435.359,242.1128z"/>
		<path class="st0" d="M421.8661,267.5524c0.3633-0.8772,0.883-1.6584,1.5021-2.347c-1.7486-0.5257-3.47-1.0139-5.1696-1.4726
			C419.4373,264.8725,420.6654,266.1404,421.8661,267.5524z"/>
		<path class="st3" d="M434.3573,239.9972c-49.0125-17.5096-81.8763-9.0988-92.4082-2.2062
			c-0.7656,0.5025-0.9802,1.529-0.4788,2.2946c0.5025,0.7678,1.5312,0.9748,2.2925,0.4788
			c10.0531-6.582,41.693-14.5184,89.4795,2.5513c0.1844,0.0668,0.372,0.097,0.5575,0.097c0.6804,0,1.3177-0.4227,1.5592-1.0999
			C435.6674,241.2523,435.2189,240.3034,434.3573,239.9972z"/>
		<path class="st3" d="M434.3573,252.6609c-49.0104-17.5053-81.8763-9.0966-92.4082-2.2062
			c-0.7656,0.5025-0.9802,1.5291-0.4788,2.2947c0.5014,0.7677,1.5312,0.9813,2.2925,0.4788
			c10.0553-6.582,41.6994-14.5119,89.4795,2.5513c0.1844,0.0668,0.372,0.097,0.5575,0.097c0.6804,0,1.3177-0.4227,1.5592-1.0999
			C435.6674,253.9161,435.2189,252.9671,434.3573,252.6609z"/>
		<path class="st3" d="M218.7815,250.6556l1.1655,0.4755c7.6772-2.6429,18.9904-5.5742,31.4777-5.5742
			c0.9144,0,1.6563-0.7419,1.6563-1.6563c0-0.9144-0.7419-1.6563-1.6563-1.6563c-13.023,0-24.65,2.9921-32.5535,5.7194
			c0.0154,0.1173,0.0553,0.225,0.0659,0.3438C219.0092,249.1163,218.9278,249.8962,218.7815,250.6556z"/>
		<path class="st3" d="M208.2707,260.7871c-0.812,0.4205-1.129,1.4212-0.7085,2.2321c0.2944,0.5694,0.8734,0.895,1.4719,0.895
			c0.2566,0,0.5176-0.0604,0.7613-0.1855c0.1108-0.0577,6.8272-3.4692,16.979-6.2344l-4.9837-2.0336
			C213.7927,257.9715,208.6756,260.5775,208.2707,260.7871z"/>
		<path class="st3" d="M251.4247,254.0131c0.9144,0,1.6563-0.7419,1.6563-1.6563c0-0.9144-0.7419-1.6563-1.6563-1.6563
			c-9.1143,0-17.5304,1.4701-24.483,3.2849l5.3112,2.1673C238.0167,254.9099,244.5399,254.0131,251.4247,254.0131z"/>
		<path class="st3" d="M248.4446,259.2336c-2.502,0.0865-4.9376,0.2747-7.3022,0.5466l4.2304,1.7263
			C246.177,260.5102,247.2337,259.7381,248.4446,259.2336z"/>
		<path class="st3" d="M208.2707,269.2454c-0.812,0.4205-1.129,1.4212-0.7085,2.2321c0.2944,0.5694,0.8734,0.895,1.4719,0.895
			c0.2566,0,0.5176-0.0604,0.7613-0.1855c0.1559-0.0811,13.3663-6.8033,30.9097-9.0081l-6.0194-2.4563
			C219.5665,263.4771,208.8644,268.938,208.2707,269.2454z"/>
		<path class="st3" d="M208.2707,277.7036c-0.812,0.4205-1.129,1.4191-0.7085,2.2321c0.2944,0.5693,0.8734,0.895,1.473,0.895
			c0.2556,0,0.5165-0.0604,0.7591-0.1855c0.1704-0.0881,15.7448-8.0008,35.5026-9.4642c-0.7207-0.9203-1.2143-2.0182-1.4625-3.2193
			C224.0452,269.6621,208.9783,277.3374,208.2707,277.7036z"/>
		<path class="st3" d="M306.2041,341.1063c-22.1281-8.1801-46.9789,0.0474-48.027,0.4033
			c-0.8659,0.2933-1.3307,1.2336-1.0374,2.0984c0.234,0.6901,0.8777,1.1258,1.5689,1.1258c0.1758,0,0.3548-0.028,0.5316-0.0884
			c0.2448-0.0841,24.7721-8.2124,45.8143-0.4335c0.8583,0.3257,1.8094-0.1208,2.1286-0.9791
			C307.5002,342.3765,307.0614,341.4233,306.2041,341.1063z"/>
		<path class="st3" d="M268.7531,333.5727c9.1186-1.6768,23.3645-2.908,36.3015,1.8746c0.8583,0.3257,1.8094-0.1208,2.1286-0.9791
			c0.317-0.8562-0.1219-1.8094-0.9791-2.1264c-12.5461-4.6378-25.9628-4.0005-35.4247-2.5146
			C270.3991,331.2327,269.7061,332.5089,268.7531,333.5727z"/>
		<path class="st3" d="M258.3613,335.9147c-0.213-0.089-0.429-0.1701-0.6339-0.2744
			C257.9154,335.7794,258.1323,335.8646,258.3613,335.9147z"/>
		<path class="st3" d="M305.0547,326.6828c0.8583,0.3257,1.8094-0.1208,2.1286-0.9791c0.317-0.8562-0.1219-1.8094-0.9791-2.1264
			c-13.4288-4.9643-27.8508-3.8845-37.3567-2.1898c0.7784,0.8944,1.3843,1.9385,1.7745,3.097
			C279.7457,322.9958,292.9705,322.2155,305.0547,326.6828z"/>
		<path class="st2" d="M460.6649,353.0259h41.1592v-21.1479c-3.6576-10.7163-9.0977-19.5024-30.9584-42.4812
			c-4.1914-4.406-8.11-6.4375-10.4984-5.4455c-1.2407,0.5197-1.8157,1.7932-1.9157,2.9759l28.7582,35.2892l-2.5685,2.0919
			l-29.1727-35.7978l0.0039-0.0032c-0.0071-0.0088-0.0174-0.0136-0.0244-0.0226c-0.0615-0.0776-6.2208-7.9429-11.2533-13.4962
			c-9.5851-10.5761-15.2473-9.3662-16.7516-8.7386c-1.793,0.7412-2.847,2.513-2.9011,4.6583
			c15.833,18.7149,45.7391,53.8833,48.3757,56.3052l-2.2407,2.4413c-3.4765-3.194-47.2323-54.9142-49.0934-57.1139l0.0112-0.0094
			c-0.0253-0.0299-0.0589-0.0491-0.0824-0.0811c-7.587-10.3453-15.1945-13.1856-19.373-11.4086
			c-3.0396,1.292-4.3425,5.124-3.5509,10.2742c3.7614,4.5657,44.3771,53.8081,54.0968,63.5773l-2.3486,2.3378
			c-10.2526-10.3065-52.8018-61.9814-54.6079-64.1769l0.0193-0.0159c-0.0561-0.0678-0.1245-0.1219-0.1702-0.1998
			c-1.3619-2.327-7.3271-3.6921-11.5681-1.8957c-4.3197,1.831-5.6633,6.1701-3.8841,12.5472
			c2.3971,8.5963,14.9594,23.0026,27.1099,36.9365c13.2686,15.215,25.8019,29.5889,26.7767,37.9523
			c0.6254,5.3722-1.487,9.9119-5.5123,11.8463c-4.4459,2.1415-14.9584,2.6268-35.4301-18.0617
			c-4.9742-5.0249-9.9118-4.0911-12.6303-1.7641c-3.0419,2.6031-4.4351,7.9536-0.3084,13.5436l3.387,4.6044
			c10.0693,13.7075,20.4815,27.883,33.1689,40.5144c9.6919,9.6466,32.2685,19.6641,35.167,20.9279h8.8109V353.0259z"/>
		<path class="st3" d="M505.1367,331.6042V161.7807v-1.6563v-26.7616h-362.407v26.7616v1.6563v240.5112H53.7819
			c-0.9144,0-1.6563,0.7419-1.6563,1.6563v95.972v16.1919v62.4322c0,0.9144,0.7419,1.6563,1.6563,1.6563h36.213h172.5829
			c0.9144,0,1.6563-0.7419,1.6563-1.6563v-62.4322v-16.1919V433.302h187.2771h9.1538v83.7612h164.0362V353.0259H505.1367V331.6042z
			 M621.3885,513.7507h-157.411V356.3385h157.411V513.7507z M55.4381,576.888v-59.1196h32.9004v59.1196H55.4381z M91.6511,517.7684
			h169.2703v59.1196H91.6511V517.7684z M260.9214,498.2639h-34.0736h-3.3126H194.093h-3.3126h-10.1705h-12.0586h-14.1758h-3.3126
			h-16.2782h-3.3126h-5.0991h-11.1774H91.883h-3.3126H55.4381v-92.6594h205.4833V498.2639z M262.5777,402.2919H146.0423V161.7807
			h355.7818v161.3798c-4.1786-8.5219-11.4344-18.0464-28.558-36.0453c-1.9911-2.0931-3.7903-3.5581-5.4081-4.587
			c-4.2263-2.6878-7.1746-2.3018-8.7684-1.6327c-0.2862,0.1196-0.554,0.2715-0.8155,0.4321l-1.1518-52.2003l-0.2174-9.8552
			c-0.0162-0.6987-0.468-1.3112-1.1301-1.5334c-69.6652-23.372-112.8204-22.7488-131.7922,1.9121
			c-12.1031-17.5094-38.3352-22.4178-76.1982-14.1186c-29.2945,6.4246-55.6161,18.5707-55.8782,18.6936
			c-0.5963,0.276-0.9726,0.8799-0.9586,1.5377l3.5444,160.6363c0.0119,0.5046,0.2523,0.9769,0.6545,1.2832
			c0.1165,0.0879,0.2482,0.1467,0.3808,0.2006c0.1987,0.0811,0.4063,0.1359,0.621,0.1359c0.1369,0,0.2739-0.0172,0.4087-0.0518
			c1.0158-0.2566,101.8186-25.5927,129.8893-3.511c0.0575,0.0448,0.1241,0.0704,0.186,0.1068
			c0.0566,0.034,0.1054,0.0774,0.1666,0.1046c0.0081,0.0035,0.017,0.0019,0.0251,0.0054c0.1866,0.0787,0.3834,0.1159,0.5835,0.1234
			c0.0214,0.0011,0.0418,0.0135,0.0632,0.0135c0.0384,0,0.0747-0.0172,0.1131-0.02c0.1178-0.0081,0.2322-0.0286,0.3469-0.062
			c0.0617-0.0178,0.1211-0.0348,0.1806-0.0598c0.0325-0.0135,0.0673-0.017,0.0991-0.0329c0.0925-0.0464,0.1692-0.1122,0.2498-0.1731
			c0.0295-0.0221,0.0659-0.031,0.0942-0.0555c12.8176-11.095,31.3011-14.354,52.378-13.7852
			c2.4819,3.3792,4.985,6.7856,7.5386,10.1917c7.8566,10.4796,16.193,20.953,25.8783,30.5944
			c7.3467,7.3129,21.1732,14.5667,29.553,18.5815H264.234v-26.0413C264.234,403.0338,263.4922,402.2919,262.5777,402.2919z
			 M427.0737,262.8875c-5.9119-1.8679-11.5668-3.3556-16.9539-4.5122c-2.0019-0.8114-3.9515-1.214-5.7803-1.1456
			c-32.4082-5.7718-54.1826,0.5208-62.3904,5.8908c-0.7656,0.5025-0.9802,1.5291-0.4788,2.2946
			c0.5025,0.7678,1.5312,0.9748,2.2925,0.4788c7.3526-4.814,26.2649-10.3409,54.5834-6.2906
			c-2.1039,1.9378-3.2558,4.93-3.3096,8.6241c-3.2568-1.5978-7.8658-1.9256-11.6555-0.5668
			c-20.8912-0.6417-35.1444,4.0086-41.432,8.1236c-0.7656,0.5025-0.9802,1.5291-0.4788,2.2946
			c0.5014,0.7656,1.5312,0.9813,2.2925,0.4788c5.4875-3.5921,17.4186-7.5756,34.8798-7.6888
			c-2.1096,2.4774-3.6263,6.6332-1.7087,13.5095c2.5987,9.3188,15.4123,24.014,27.8043,38.224
			c12.3542,14.1669,25.1279,28.8147,25.983,36.1602c0.3591,3.0753-0.4141,6.9185-3.6555,8.4777
			c-2.9395,1.4126-11.9013,2.5384-31.6409-17.4061c-6.1518-6.2154-13.0411-5.4606-17.1398-1.9518
			c-4.1688,3.5692-6.2036,10.7336-0.8195,18.0273l0.995,1.3525c-19.3789-0.237-36.5998,2.8923-49.408,12.4909l-3.4581-156.7328
			c17.1139-24.262,60.1785-25.1074,128.0238-2.5103l1.3701,62.0933c-2.284-2.8202-5.4847-6.6897-8.3393-9.8404
			C436.9605,262.0728,430.2012,262.0093,427.0737,262.8875z M423.3682,265.2054c-0.6191,0.6885-1.1389,1.4698-1.5021,2.347
			c-1.2007-1.412-2.4288-2.6799-3.6675-3.8195C419.8982,264.1916,421.6196,264.6798,423.3682,265.2054z M322.2796,222.9965
			l0.3494,15.8341l3.1137,141.1141c-13.3098-8.1539-38.5184-9.9655-75.0286-5.3956c-24.2965,3.043-46.3297,8.1176-52.9559,9.7134
			l-3.4743-157.4768C204.8826,222.0713,297.3846,182.4433,322.2796,222.9965z M416.687,409.0616
			c-12.6874-12.6313-23.0996-26.8069-33.1689-40.5144l-3.387-4.6044c-4.1267-5.59-2.7335-10.9406,0.3084-13.5436
			c2.7184-2.327,7.656-3.2608,12.6303,1.7641c20.4718,20.6885,30.9843,20.2033,35.4301,18.0617
			c4.0253-1.9345,6.1378-6.4742,5.5123-11.8463c-0.9748-8.3634-13.508-22.7373-26.7767-37.9523
			c-12.1504-13.934-24.7128-28.3402-27.1099-36.9365c-1.7792-6.3771-0.4356-10.7163,3.8841-12.5472
			c4.241-1.7965,10.2062-0.4313,11.5681,1.8957c0.0457,0.0779,0.1142,0.132,0.1702,0.1998l-0.0193,0.0159
			c1.8062,2.1954,44.3553,53.8704,54.6079,64.1769l2.3486-2.3378c-9.7197-9.7692-50.3354-59.0116-54.0968-63.5773
			c-0.7916-5.1501,0.5112-8.9822,3.5509-10.2742c4.1785-1.777,11.7859,1.0632,19.373,11.4086
			c0.0235,0.0321,0.057,0.0512,0.0824,0.0811l-0.0112,0.0094c1.8611,2.1998,45.6169,53.92,49.0934,57.1139l2.2407-2.4413
			c-2.6366-2.4219-32.5427-37.5902-48.3757-56.3052c0.054-2.1453,1.1081-3.9171,2.9011-4.6583
			c1.5042-0.6276,7.1665-1.8374,16.7516,8.7386c5.0325,5.5533,11.1918,13.4185,11.2533,13.4962
			c0.007,0.009,0.0172,0.0139,0.0244,0.0226l-0.0039,0.0032l29.1727,35.7978l2.5685-2.0919l-28.7582-35.2892
			c0.1-1.1826,0.675-2.4561,1.9157-2.9759c2.3885-0.992,6.3071,1.0395,10.4984,5.4455
			c21.8607,22.9789,27.3008,31.765,30.9584,42.4812v21.1479h-41.1592v76.9635h-8.8109
			C448.9555,428.7257,426.3789,418.7082,416.687,409.0616z"/>
		<path class="st1" d="M262.0651,318.2415l-7.3557-44.8176c2.8835-1.3482,4.7719-4.3691,4.4734-7.7233
			c-0.3816-4.2848-4.1644-7.4491-8.4492-7.0675c-0.8153,0.0725-1.5715,0.3017-2.289,0.6006
			c-1.2108,0.5045-2.2676,1.2766-3.0718,2.2728l-4.2304-1.7263l-8.8893-3.6274l-5.3112-2.1673l-6.9947-2.8543l-1.1655-0.4755
			c0.1462-0.7594,0.2277-1.5393,0.1557-2.348c-0.0107-0.1189-0.0506-0.2266-0.0659-0.3438
			c-0.5867-4.4861-4.5889-7.7593-9.1374-7.3544c-4.6672,0.4156-8.1138,4.5359-7.6982,9.2031
			c0.4156,4.6672,4.5359,8.1139,9.2031,7.6984c2.6733-0.238,4.9152-1.7133,6.2911-3.7888l4.2607,1.7386l4.9837,2.0336l7.9113,3.2283
			l6.0194,2.4563l3.1991,1.3055c-0.2107,0.8295-0.3184,1.697-0.2382,2.5978c0.0271,0.3041,0.1082,0.5877,0.1685,0.8796
			c0.2482,1.2011,0.7417,2.299,1.4625,3.2193c1.4466,1.8469,3.6971,2.9759,6.1732,2.9612l7.3236,44.6221
			c-3.8625,1.3819-6.4781,5.2054-6.0973,9.482c0.2929,3.2899,2.2891,5.9998,5.0309,7.394c0.2049,0.1043,0.421,0.1855,0.6339,0.2744
			c1.3375,0.5586,2.8076,0.8476,4.3518,0.7101c2.4273-0.2159,4.5331-1.3697,6.04-3.0522c0.9529-1.0638,1.646-2.34,2.0263-3.7455
			c0.2767-1.0233,0.4118-2.1011,0.3123-3.2186c-0.0662-0.7435-0.2415-1.4464-0.4698-2.124
			c-0.3902-1.1585-0.9961-2.2026-1.7745-3.097C267.1766,319.4678,264.7434,318.2905,262.0651,318.2415z"/>
		<path class="st6" d="M896.4617,457.8164c-28.4072,13.5959-45.2727-6.7308-58.9171,0
			c-12.7123,6.2707-21.8311,32.4537-39.52,35.6452h33.7508c0,0-0.7119-13.425,13.2737-16.4949
			c13.9855-3.07,19.772,0.4343,29.6766,1.7056c21.2602,2.7289,39.5688-8.4163,49.461-22.5133
			c6.9364-9.8849,22.9235-13.047,23.6218-13.1813l-0.0179-13.7687C927.5533,428.235,924.8289,444.2393,896.4617,457.8164z"/>
		<path class="st3" d="M922.1401,419.319c-22.5132,5.1166-15.0089,12.2798-39.5688,23.6458
			c-24.5601,11.3657-64.7798-6.3362-52.5311-34.5615c7.8455-18.0787-0.0993-41.4493,5.1166-61.3997
			c5.3569-20.4897,15.3501-24.219,30.359-26.6068h-33.7465c-19.4669,46.5573-31.7469,0.6823-43.3447,0H688.1649l0.2258,173.0649
			h109.6339c17.6889-3.1915,26.8077-29.3746,39.52-35.6452c13.6444-6.7308,30.5099,13.5959,58.9171,0
			c28.3672-13.5771,31.0917-29.5814,51.3289-28.6074c0.0287,0.0014,0.0551,0.0008,0.0839,0.0022l-0.0484-23.2972
			C947.3672,408.8637,943.1792,414.5372,922.1401,419.319z M756.2277,478.5138c-31.383-4.7912-71.7209-29.2239-56.8798-72.9136
			c15.9178-46.8592-11.8538-87.492,58.3101-79.2789c31.52,3.6897,55.0613,21.3646,56.6951,79.2789
			C815.6597,451.918,796.4843,484.6594,756.2277,478.5138z"/>
		<path class="st6" d="M831.7692,320.3967h-43.3447C800.0223,321.079,812.3023,366.954,831.7692,320.3967z"/>
		<path class="st6" d="M757.6579,326.3213c-70.1638-8.2131-42.3923,32.4197-58.3101,79.2789
			c-14.8411,43.6897,25.4968,68.1224,56.8798,72.9136c40.2567,6.1456,59.432-26.5958,58.1254-72.9136
			C812.7192,347.6859,789.1779,330.011,757.6579,326.3213z M760.1945,458.0191c-22.5947-3.1638-41.2695-23.8372-41.2695-53.2417
			c0-29.4045,18.4771-53.2417,41.2695-53.2417c22.7925,0,39.9023,23.8728,41.2695,53.2417
			C803.0316,438.4521,784.222,461.3832,760.1945,458.0191z"/>
		<path class="st4" d="M924.1867,456.159c-9.8922,14.097-28.2008,25.2422-49.461,22.5133
			c-9.9047-1.2713-15.6912-4.7756-29.6766-1.7056c-13.9856,3.0699-13.2737,16.4949-13.2737,16.4949h59.5859
			c10.6533,0,28.0499-2.3669,32.8254-14.2065c4.7756-11.8396,23.6877-9.5336,23.6877-9.5336v-26.7567c0,0-0.0503,0.01-0.0659,0.0129
			C947.1102,443.112,931.1231,446.2741,924.1867,456.159z"/>
		<path class="st5" d="M924.1867,479.2552c-4.7756,11.8396-22.1721,14.2065-32.8254,14.2065h56.5132v-23.7401
			C947.8745,469.7215,928.9623,467.4155,924.1867,479.2552z"/>
		<path class="st6" d="M947.7899,373.5816c-1.5529,20.6494-25.3309,27.0252-48.8873,38.3758
			c-44.3025,21.3474-53.8535-19.6145-53.8535-42.0105s26.8071-39.0929,53.8535-39.0929c26.0538,0,47.3466,16.8495,48.8751,38.1057
			l-0.1292-48.5629h-82.1328c-15.0089,2.3878-25.0021,6.1172-30.359,26.6068c-5.2159,19.9504,2.7289,43.321-5.1166,61.3997
			c-12.2487,28.2254,27.9711,45.9272,52.5311,34.5615c24.5599-11.3659,17.0555-18.5292,39.5688-23.6458
			c21.0391-4.7818,25.2272-10.4553,25.686-13.405c0.032-0.207,0.0484-0.4017,0.0484-0.5807L947.7899,373.5816z"/>
		<path class="st4" d="M760.1945,351.5357c-22.7924,0-41.2695,23.8372-41.2695,53.2417c0,29.4045,18.6748,50.0779,41.2695,53.2417
			c24.0275,3.364,42.8371-19.5671,41.2695-53.2417C800.0967,375.4085,782.9869,351.5357,760.1945,351.5357z M760.2193,444.2971
			c-14.1284-1.0713-25.6476-17.3139-25.6476-38.6715s11.4828-38.6715,25.6476-38.6715c14.1647,0,21.2588,17.8224,25.6474,38.6715
			C790.7125,428.6459,778.401,445.6751,760.2193,444.2971z"/>
		<path class="st5" d="M760.2193,366.954c-14.1647,0-25.6476,17.3139-25.6476,38.6715s11.5192,37.6002,25.6476,38.6715
			c18.1817,1.3781,30.4932-15.6512,25.6474-38.6715C781.4781,384.7763,774.384,366.954,760.2193,366.954z M761.1077,427.8441
			c-5.9637,0.947-11.9833-8.2326-11.9833-15.4697c0-7.2371,3.2359-16.2348,9.2669-16.2348c6.0308,0,11.052,9.1781,12.5731,16.2348
			C772.1379,417.8191,771.1678,426.2472,761.1077,427.8441z"/>
		<path class="st0" d="M758.3913,396.1396c-6.031,0-9.2669,8.9977-9.2669,16.2348c0,7.2371,6.0195,16.4167,11.9833,15.4697
			c10.0601-1.597,11.0302-10.0251,9.8568-15.4697C769.4433,405.3177,764.4221,396.1396,758.3913,396.1396z"/>
		<path class="st4" d="M898.9026,330.8539c-27.0464,0-53.8535,16.6969-53.8535,39.0929s9.551,63.3579,53.8535,42.0105
			c23.5564-11.3506,47.3344-17.7264,48.8873-38.3758c0.0534-0.7093,0.0845-1.4323,0.0845-2.1758
			c0-0.8222-0.0386-1.6363-0.0968-2.4461C946.2491,347.7034,924.9564,330.8539,898.9026,330.8539z M882.9124,401.0451
			c-17.5625,0-20.8078-15.6439-20.8078-29.8226c0-14.179,18.4006-26.9486,35.9631-26.9486c17.5624,0,31.7994,11.4943,31.7994,25.673
			S900.4747,401.0451,882.9124,401.0451z"/>
		<path class="st5" d="M898.0677,344.2738c-17.5625,0-35.9631,12.7697-35.9631,26.9486c0,14.1787,3.2453,29.8226,20.8078,29.8226
			c17.5623,0,46.9547-16.9195,46.9547-31.0983S915.6301,344.2738,898.0677,344.2738z M900.5474,380.7413
			c-10.4396,2.5092-18.9908-0.8182-12.1072-12.1073c3.4811-5.7089,5.4205-12.107,12.1072-12.107
			c6.6866,0,12.1072,5.4204,12.1072,12.107S907.049,379.1788,900.5474,380.7413z"/>
		<path class="st0" d="M900.5474,356.527c-6.6866,0-8.6261,6.3982-12.1072,12.107c-6.8837,11.2891,1.6676,14.6165,12.1072,12.1073
			c6.5015-1.5625,12.1072-5.4207,12.1072-12.1073S907.234,356.527,900.5474,356.527z"/>
		<path class="st5" d="M463.9775,356.3385v157.4121h157.411V356.3385H463.9775z M611.3333,437.5808
			c0,37.2665-30.3189,67.5865-67.5854,67.5865c-37.2675,0-67.5865-30.32-67.5865-67.5865s30.3189-67.5844,67.5865-67.5844
			C581.0143,369.9964,611.3333,400.3143,611.3333,437.5808z"/>
		<path class="st5" d="M478.3697,437.5808c0,36.0502,29.329,65.3781,65.3781,65.3781c36.0491,0,65.3771-29.3279,65.3771-65.3781
			c0-36.048-29.3279-65.3759-65.3771-65.3759C507.6988,372.2048,478.3697,401.5328,478.3697,437.5808z M597.6146,435.0451
			c0,15.8011-24.5938,28.6103-54.9317,28.6103s-54.9317-12.8093-54.9317-28.6103c0-15.8013,24.5938-28.6106,54.9317-28.6106
			S597.6146,419.2438,597.6146,435.0451z"/>
		<path class="st0" d="M476.1613,437.5808c0,37.2665,30.3189,67.5865,67.5865,67.5865c37.2665,0,67.5854-30.32,67.5854-67.5865
			s-30.3189-67.5844-67.5854-67.5844C506.4803,369.9964,476.1613,400.3143,476.1613,437.5808z M609.1249,437.5808
			c0,36.0502-29.3279,65.3781-65.3771,65.3781c-36.049,0-65.3781-29.3279-65.3781-65.3781c0-36.048,29.329-65.3759,65.3781-65.3759
			C579.7969,372.2048,609.1249,401.5328,609.1249,437.5808z"/>
		<path class="st0" d="M487.7512,435.0451c0,15.8011,24.5938,28.6103,54.9317,28.6103s54.9317-12.8093,54.9317-28.6103
			c0-15.8013-24.5938-28.6106-54.9317-28.6106S487.7512,419.2438,487.7512,435.0451z M542.6829,410.2342
			c13.7025,0,24.8106,11.1082,24.8106,24.8109c0,13.7024-11.1081,24.8106-24.8106,24.8106
			c-13.7026,0-24.8108-11.1082-24.8108-24.8106C517.8721,421.3425,528.9802,410.2342,542.6829,410.2342z"/>
		<path class="st3" d="M542.6829,459.8558c13.7025,0,24.8106-11.1082,24.8106-24.8106c0-13.7027-11.1081-24.8109-24.8106-24.8109
			c-13.7026,0-24.8108,11.1082-24.8108,24.8109C517.8721,448.7475,528.9802,459.8558,542.6829,459.8558z M542.6829,427.5312
			c4.1498,0,7.5138,3.3641,7.5138,7.514c0,4.1499-3.364,7.5137-7.5138,7.5137c-4.1499,0-7.514-3.3638-7.514-7.5137
			C535.1689,430.8952,538.533,427.5312,542.6829,427.5312z"/>
		<path class="st2" d="M542.6829,442.5588c4.1498,0,7.5138-3.3638,7.5138-7.5137c0-4.1499-3.364-7.514-7.5138-7.514
			c-4.1499,0-7.514,3.3641-7.514,7.514C535.1689,439.195,538.533,442.5588,542.6829,442.5588z"/>
		<path class="st0" d="M260.9214,405.6045H55.4381v92.6594h33.1322v-14.8527h3.3126v14.8527h23.3127v-20.403
			c0-3.0864,2.5021-5.5887,5.5886-5.5887c3.0865,0,5.5888,2.5022,5.5888,5.5887v20.403h5.0991v-38.3793h-16.7171v-3.3126h18.3734
			c0.9144,0,1.6563,0.7419,1.6563,1.6563v40.0356h16.2782v-48.4723h-20.7823c-0.9144,0-1.6563-0.7419-1.6563-1.6563v-17.6541
			h-20.0577v-3.3126h21.714c0.9144,0,1.6563,0.7419,1.6563,1.6563v17.6541h20.7823c0.9144,0,1.6563,0.7419,1.6563,1.6563v50.1286
			h14.1758v-22.1423c0-3.3298,2.6994-6.0291,6.0293-6.0291c3.33,0,6.0294,2.6993,6.0294,6.0291v22.1423h10.1705v-37.3182
			c0-0.9144,0.7419-1.6563,1.6563-1.6563h14.4842c0.5264-8.8152,5.1941-16.2032,11.6392-19.2711l0.2155-9.9534v-13.5307
			c0-0.9144,0.7419-1.6563,1.6563-1.6563h22.1647v3.3126h-20.5084v11.911l-0.1897,8.7594c1.07-0.238,2.1673-0.3812,3.2933-0.3812
			c10.1283,0,18.339,10.0582,18.339,22.4653c0,12.4076-8.2107,22.4656-18.339,22.4656c-9.6719,0-17.5762-9.1781-18.2709-20.8087
			H194.093v35.662h29.4422v-14.8527h3.3126v14.8527h34.0736V405.6045z M120.947,465.408c1.0643,0,1.9271,0.8629,1.9271,1.9272
			s-0.8628,1.9272-1.9271,1.9272c-1.0644,0-1.9272-0.8629-1.9272-1.9272S119.8826,465.408,120.947,465.408z M68.6043,414.878
			h21.3905c0.9144,0,1.6563,0.7419,1.6563,1.6563V433.77h-3.3126v-15.5795H68.6043V414.878z M90.2272,483.4107
			c-10.1285,0-18.3391-10.058-18.3391-22.4656c0-12.4071,8.2107-22.4653,18.3391-22.4653c10.1283,0,18.339,10.0582,18.339,22.4653
			C108.5662,473.3527,100.3555,483.4107,90.2272,483.4107z M174.756,466.8451c-1.1483,0-2.0791-0.9306-2.0791-2.079
			c0-1.1484,0.9308-2.079,2.0791-2.079s2.0791,0.9306,2.0791,2.079C176.8351,465.9145,175.9043,466.8451,174.756,466.8451z"/>
		<path class="st5" d="M260.9214,517.7684H91.6511v59.1196h169.2703V517.7684z M205.5772,527.8256h39.2292v9.0317h-39.2292V527.8256
			z M106.1699,527.8256h59.3088v9.0317h-59.3088V527.8256z M192.4373,541.0058v9.0317h-59.3088v-9.0317H192.4373z M249.872,568.6735
			H103.7735v-3.3126H249.872V568.6735z M257.1463,550.0375H242.597v-9.0317h14.5493V550.0375z"/>
		<path class="st4" d="M55.4381,517.7684v59.1196h32.9004v-59.1196H55.4381z M83.7352,559.2576H60.0415v-3.3126h23.6938V559.2576z
			 M83.7352,538.513H60.0415v-3.3126h23.6938V538.513z"/>
		<rect x="60.0415" y="535.2004" class="st3" width="23.6938" height="3.3126"/>
		<rect x="60.0415" y="555.945" class="st3" width="23.6938" height="3.3126"/>
		<rect x="106.1699" y="527.8256" class="st6" width="59.3088" height="9.0317"/>
		<rect x="133.1284" y="541.0058" class="st6" width="59.3088" height="9.0317"/>
		<rect x="205.5772" y="527.8256" class="st6" width="39.2292" height="9.0317"/>
		<rect x="242.597" y="541.0058" class="st6" width="14.5493" height="9.0317"/>
		<rect x="103.7735" y="565.3608" class="st0" width="146.0985" height="3.3126"/>
		<path class="st5" d="M206.9209,462.602c0.6947,11.6307,8.599,20.8087,18.2709,20.8087c10.1283,0,18.339-10.058,18.339-22.4656
			c0-12.4071-8.2107-22.4653-18.339-22.4653c-1.126,0-2.2233,0.1431-3.2933,0.3812l0.1897-8.7594v-11.911h20.5084v-3.3126h-22.1647
			c-0.9144,0-1.6563,0.7419-1.6563,1.6563v13.5307l-0.2155,9.9534c-6.4451,3.0678-11.1128,10.4559-11.6392,19.2711h-14.4842
			c-0.9144,0-1.6563,0.7419-1.6563,1.6563v37.3182h3.3126v-35.662H206.9209z"/>
		<path class="st5" d="M133.1284,456.572h-18.3734v3.3126h16.7171v38.3793h3.3126v-40.0356
			C134.7847,457.3139,134.0428,456.572,133.1284,456.572z"/>
		<rect x="223.5353" y="483.4112" class="st4" width="3.3126" height="14.8527"/>
		<rect x="88.5704" y="483.4112" class="st4" width="3.3126" height="14.8527"/>
		<ellipse class="st5" cx="90.2272" cy="460.9452" rx="18.3391" ry="22.4655"/>
		<path class="st5" d="M88.3386,433.77h3.3126v-17.2357c0-0.9144-0.7419-1.6563-1.6563-1.6563H68.6043v3.3126h19.7342V433.77z"/>
		<path class="st5" d="M152.7192,446.479h-20.7823v-17.6541c0-0.9144-0.7419-1.6563-1.6563-1.6563h-21.714v3.3126h20.0577v17.6541
			c0,0.9144,0.7419,1.6563,1.6563,1.6563h20.7823v48.4723h3.3126v-50.1286C154.3755,447.2209,153.6336,446.479,152.7192,446.479z"/>
		<path class="st5" d="M174.5805,470.0924c-3.3298,0-6.0293,2.6993-6.0293,6.0291v22.1423h12.0586v-22.1423
			C180.6099,472.7917,177.9105,470.0924,174.5805,470.0924z"/>
		<circle class="st5" cx="174.756" cy="464.7661" r="2.0791"/>
		<path class="st5" d="M120.7843,472.2722c-3.0865,0-5.5886,2.5022-5.5886,5.5887v20.403h11.1774v-20.403
			C126.3731,474.7745,123.8708,472.2722,120.7843,472.2722z"/>
		<path class="st5" d="M120.947,469.2624c1.0643,0,1.9271-0.8629,1.9271-1.9272s-0.8628-1.9272-1.9271-1.9272
			c-1.0644,0-1.9272,0.8629-1.9272,1.9272S119.8826,469.2624,120.947,469.2624z"/>
		<path class="st5" d="M617.4897,178.9486c-0.9686-9.9559-5.9237-18.8246-16.0531-18.8246c-1.6263,0-3.1047,0.2503-4.4686,0.6762
			c-3.7022-12.4695-11.5648-21.8641-24.477-21.8641c-8.5485,0-14.868,4.1353-19.2476,10.5378v38.3773L617.4897,178.9486z"/>
		<path class="st4" d="M776.1922,187.0512c-0.6145,0.0581-1.2365,0.0906-1.8666,0.0906s-1.2521-0.0325-1.8666-0.0906v15.5934h3.7332
			V187.0512z"/>
		<path class="st5" d="M650.4581,205.8042c0.0426-1.0764,0.1531-2.1271,0.3076-3.1596h-24.5974l-72.7161,64.5886h95.4291
			C649.0598,258.8039,649.8961,219.9954,650.4581,205.8042z M640.6752,212.0473c-0.9144,0-1.6563-0.7419-1.6563-1.6563v-5.521
			h3.3126v3.8647h3.8647v3.3126H640.6752z"/>
		<path class="st5" d="M772.459,202.6446h-41.5045c0.1216,0.9021,0.2159,1.8188,0.2524,2.7641
			c0.5757,14.9207,2.1586,53.4687,2.5021,61.8245h70.0178v-64.5886h-27.5347H772.459z M743.1419,210.391
			c0,0.9144-0.7419,1.6563-1.6563,1.6563h-5.5209v-3.3126h3.8647v-3.8647h3.3126V210.391z"/>
		<path class="st5" d="M776.1922,187.0512c9.6334-0.911,17.1632-9.0159,17.1632-26.0859c0-18.1588-5.6975-36.0545-19.0298-36.0545
			c-13.3321,0-19.0298,17.8957-19.0298,36.0545c0,17.07,7.53,25.1748,17.1632,26.0859c0.6145,0.0581,1.2365,0.0906,1.8666,0.0906
			S775.5777,187.1093,776.1922,187.0512z"/>
		<path class="st6" d="M730.9545,202.6446c-2.0367-15.1093-15.5377-24.1481-25.0782-26.2817c-9.2224-2.0624-4.773-9.584-4.773-9.584
			h-0.0581c2.4106-2.4982,3.9053-5.8853,3.9053-9.6097v-4.3633c0-7.6284-6.2415-13.8698-13.8698-13.8698h-0.0001
			c-7.6284,0-13.8698,6.2414-13.8698,13.8698v4.3633c0,3.7157,1.4883,7.0953,3.889,9.5919
			c0.0056,0.0058,0.0106,0.0121,0.0162,0.0178h-0.0023c1.7789,2.2781,2.392,8.1696-2.9561,9.19
			c-12.7981,2.4418-25.2559,12.4011-27.392,26.6757c-0.1545,1.0325-0.265,2.0832-0.3076,3.1596
			c-0.562,14.1913-1.3983,52.9998-1.5768,61.429h84.8278c-0.3436-8.3558-1.9265-46.9038-2.5021-61.8245
			C731.1705,204.4634,731.0761,203.5467,730.9545,202.6446z M671.5872,212.0473h-11.7979v-3.3126h11.7979V212.0473z
			 M696.9793,212.0473h-11.7989v-3.3126h11.7989V212.0473z M722.3715,212.0473h-11.799v-3.3126h11.799V212.0473z"/>
		<polygon class="st4" points="626.1683,177.7461 617.4897,178.9486 553.2435,187.8512 553.2435,267.2332 553.4522,267.2332 
			626.1683,202.6446 		"/>
		<path class="st3" d="M551.5872,270.5458h253.796c0.9144,0,1.6563-0.7419,1.6563-1.6563V79.2207
			c0-0.9144-0.7419-1.6563-1.6563-1.6563h-253.796c-0.9144,0-1.6563,0.7419-1.6563,1.6563v189.6688
			C549.9308,269.8039,550.6727,270.5458,551.5872,270.5458z M553.2435,267.2332v-79.382v-38.3773V80.877h250.4835v121.7675v64.5886
			h-70.0178h-84.8278h-95.4291H553.2435z"/>
		<path class="st1" d="M739.8293,208.7347h-3.8647v3.3126h5.5209c0.9144,0,1.6563-0.7419,1.6563-1.6563v-5.521h-3.3126V208.7347z"/>
		<rect x="659.7894" y="208.7347" class="st1" width="11.7978" height="3.3126"/>
		<rect x="710.5725" y="208.7347" class="st1" width="11.7989" height="3.3126"/>
		<rect x="685.1804" y="208.7347" class="st1" width="11.7989" height="3.3126"/>
		<path class="st1" d="M642.3315,208.7347v-3.8647h-3.3126v5.521c0,0.9144,0.7419,1.6563,1.6563,1.6563h5.5209v-3.3126H642.3315z"/>
		<rect x="639.0189" y="184.4339" class="st1" width="3.3126" height="9.4956"/>
		<rect x="639.0189" y="163.9977" class="st1" width="3.3126" height="9.4956"/>
		<rect x="639.0189" y="143.5594" class="st1" width="3.3126" height="9.4978"/>
		<path class="st1" d="M642.3315,128.7541h3.8647v-3.3126h-5.5209c-0.9144,0-1.6563,0.7419-1.6563,1.6563v5.521h3.3126V128.7541z"/>
		<rect x="710.5736" y="125.4415" class="st1" width="11.7978" height="3.3126"/>
		<rect x="685.1815" y="125.4415" class="st1" width="11.7989" height="3.3126"/>
		<rect x="659.7894" y="125.4415" class="st1" width="11.7989" height="3.3126"/>
		<path class="st1" d="M739.8293,132.6188h3.3126v-5.521c0-0.9144-0.7419-1.6563-1.6563-1.6563h-5.5209v3.3126h3.8647V132.6188z"/>
		<rect x="739.8293" y="184.4317" class="st1" width="3.3126" height="9.4978"/>
		<rect x="739.8293" y="143.5594" class="st1" width="3.3126" height="9.4956"/>
		<rect x="739.8293" y="163.9955" class="st1" width="3.3126" height="9.4956"/>
	</g>
	<g>
		<polygon class="st2" points="721.8182,891.8508 721.8182,901.3594 735.9042,901.6246 735.9042,892.222 		"/>
		<polygon class="st2" points="675.6988,891.7274 675.6988,901.3594 689.7849,901.6246 689.7849,891.7274 		"/>
		<path class="st2" d="M642.0507,594.3915c-0.2241-10.3836-1.4767-21.4506-6.7617-32.9536
			c-1.1118-2.3766-2.2159-3.0516-2.7217-3.0516c-0.0593,0-0.11,0.0086-0.152,0.0259c-0.5262,0.2092-1.1182,1.6282-0.426,3.7051
			c1.8493,5.5468,2.5944,9.5905,2.6246,9.7609c0.0862,0.4702-0.0367,0.9575-0.3364,1.3306
			c-0.2997,0.3752-0.7473,0.5995-1.2271,0.619c-8.8735,0.3558-10.6602,1.9496-11.5078,5.6245
			c-0.6265,2.7109-0.0345,5.9005,1.4395,7.7552c0.8357,1.0482,1.8871,1.5808,3.1271,1.5808c0.7602,0,1.4223,0.5176,1.6067,1.2552
			c0.6315,2.5251,1.235,4.4162,1.787,5.8889L642.0507,594.3915z"/>
		<path class="st2" d="M757.0715,705.2202c-3.6113-1.5722-5.7075-3.7332-6.2305-6.416c-0.1794-0.9212-0.1372-1.8094,0.0194-2.6451
			l-4.9807-1.7932v22.1383c1.9875,1.7566,4.0772,2.73,6.1679,2.8138c2.8134,0.1531,5.5857-1.3047,8.0485-4.0933
			c1.9658-2.2278,2.8036-4.076,2.4888-5.4929C762.241,708.1834,760.3863,706.6652,757.0715,705.2202z"/>
		<path class="st2" d="M705.663,584.2637c0.2471,1.4803,0.3699,3.0621,0.425,4.5246h15.939
			c-0.1426-1.673-0.1325-3.5207,0.1597-5.3274c-1.4634-0.4416-2.2336-1.425-2.6027-2.0978
			c-1.4029-2.5621-0.4388-6.5605,1.3037-8.9457c0.7634-1.046,1.0643-2.189,0.73-2.7799c-0.3267-0.578-1.473-0.8346-3.0462-0.6945
			c-0.6718,0.0604-1.3026-0.2868-1.6132-0.8777c-0.3127-0.5909-0.2383-1.3112,0.1865-1.8267
			c1.2811-1.5527,1.3188-2.4564,1.3619-3.5023c0.0496-1.184,0.11-2.6591,1.8763-4.1752c0.9532-0.8195-0.0097-2.7066-1.473-5.2838
			c-0.3402-0.5992-0.7162-1.2676-1.0599-1.9658c-4.5822,0.5564-16.4092,1.949-20.9042,2.0757c-0.0302,0-0.0582,0.0021-0.0852,0.0021
			c0.4594,1.0201,1.983,2.8532,2.6138,3.6145c1.2756,1.5334,1.8029,2.1696,1.6929,3.1034
			c-0.0528,0.4507-0.3181,0.9166-0.6815,1.1883c-7.1934,6.2154-7.4426,8.7969-5.3538,11.3589
			c1.184,1.4536,2.8219,2.739,4.4059,3.9811C702.2825,578.788,705.1195,581.0137,705.663,584.2637z M708.7811,556.4777
			c0.7315,0,1.3246,0.5931,1.3246,1.3247s-0.5931,1.3247-1.3246,1.3247c-0.7316,0-1.3247-0.5931-1.3247-1.3247
			S708.0494,556.4777,708.7811,556.4777z M698.7979,568.2723c0-1.6447,1.3334-2.9783,2.9784-2.9783
			c1.645,0,2.9785,1.3336,2.9785,2.9783c0,1.645-1.3334,2.9786-2.9785,2.9786
			C700.1313,571.2509,698.7979,569.9173,698.7979,568.2723z"/>
		<path class="st5" d="M742.5671,692.0238l-0.1885-19.6501c0-0.0005-0.0001-0.0005-0.0001-0.0005l-0.7074-35.8005
			c-0.014-0.7484,0.4755-1.4147,1.1948-1.6239c0.7225-0.2071,1.4902,0.0927,1.8774,0.7332l12.6292,20.8201
			c0.3602,0.5931,0.3116,1.3479-0.1197,1.8892l-11.556,14.5203l0.172,17.9283l6.9888,2.5168
			c3.1152-3.7418,15.2894-18.3011,22.8904-26.5352c7.986-8.6524,3.1573-17.3802-2.299-23.1772h0.001
			c-1.722-1.8267-4.3704-5.2233-7.7228-9.5215c-7.9321-10.1707-19.9197-25.541-28.2227-30.5228
			c-3.4711-2.0854-7.7865-3.5757-10.0509-4.2787c-2.1071-0.6534-3.6059-2.5793-3.7288-4.7877l-0.1348-2.4326h-18.7723l-0.6405,2.562
			c-0.4691,1.8785-2.0854,3.2997-4.0232,3.5369c-13.9922,1.7339-20.0253,4.5375-26.0057,16.8281
			c-6.3879,13.1317-13.1317,29.7938-13.1996,29.962c-0.2739,0.6772-0.9619,1.0805-1.6854,1.0287
			c-0.7278-0.0669-1.3264-0.6017-1.473-1.3177c-2.5588-12.4739-11.0549-40.8314-13.0109-47.3077l-17.7221,2.176
			c6.9875,32.7915,12.0146,50.8748,15.7024,64.1402l0.3731,1.3414c1.5172,5.4606,5.1209,9.1786,9.6423,9.9442
			c5.0368,0.8648,10.438-2.066,14.43-7.8134l10.3429-16.2957l9.1045-15.1975l1.4212,0.8519l0.0004-0.0008l-0.0004,0.0008
			l1.4212,0.8519l-8.8945,14.8467l-2.1356,68.6212c20.8405,0.9274,56.0237,1.5851,64.1024,1.7296V692.0238z"/>
		<path class="st3" d="M754.6647,696.3651c0.1467-0.1769,14.8484-17.9065,23.518-27.2964
			c7.5806-8.2146,6.7557-18.0488-2.3205-27.6932h-0.0011c-1.6153-1.7167-4.3531-5.2277-7.5223-9.2907
			c-8.5662-10.9837-20.2982-26.0262-29.1296-31.325c-3.58-2.1501-7.8339-3.6878-10.7723-4.6001
			c-0.8055-0.2523-1.3576-0.9619-1.404-1.8115l-0.2221-3.9962c-0.046-0.8136-0.6812-1.438-1.4727-1.5283
			c-0.1698-1.7509-0.1431-3.6382,0.2092-5.3401c5.0242-1.0751,14.3235-6.4844,14.3531-12.6729
			c0.0129-2.7778-0.8799-4.324-1.8137-5.1802c1.997-3.9768,0.8335-7.7962-3.6879-12.461c-0.9295-0.9575-1.8245-1.9668-2.6979-2.9503
			c-3.8927-4.3844-7.9169-8.9155-12.902-6.0234c-1.73,1.005-2.1755,2.4127-2.0087,3.9056
			c-4.9188,0.5925-15.8259,1.8596-19.9372,1.9733c-2.0251,0.056-2.8564,0.9661-3.1972,1.7188
			c-0.992,2.1954,1.2724,4.9214,3.2706,7.326c0.1337,0.1617,0.2847,0.3429,0.4291,0.5198c-4.971,4.4297-9.3209,9.5495-4.792,15.1072
			c1.418,1.7404,3.2036,3.14,4.93,4.4944c2.3508,1.8439,4.571,3.5865,4.902,5.5706c0.2252,1.3479,0.3307,2.8138,0.379,4.1806
			c-0.4119,0.2135-0.7382,0.5777-0.8568,1.0514l-0.9543,3.8172c-0.1391,0.5564-0.6276,0.9791-1.2153,1.0524
			c-14.3469,1.7771-21.8779,4.8934-28.5785,18.6656c-4.3198,8.8788-8.7947,19.3471-11.2943,25.3275
			c-3.8571-15.9828-12.2367-43.5013-12.3316-43.8097c-0.235-0.7678-0.991-1.2681-1.7857-1.1603l-0.3959,0.0485
			c-0.2584-10.327-1.6065-22.0521-7.0682-33.9421c-2.1944-4.6842-5.108-5.5015-7.1072-4.7079
			c-2.4909,0.9942-3.4969,4.3607-2.3399,7.8307c1.0438,3.1314,1.7264,5.7927,2.1124,7.4576
			c-7.1212,0.4895-11.277,2.1566-12.6453,8.083c-0.8508,3.6857-0.0173,7.9321,2.0757,10.5632
			c1.1818,1.4838,2.6871,2.4089,4.4059,2.7173c0.4439,1.6752,0.8867,3.1096,1.3249,4.3612l-1.2612,0.1548
			c-0.4604,0.056-0.8767,0.3041-1.1462,0.6815c-0.2696,0.3774-0.3688,0.8519-0.2728,1.3047
			c7.2064,34.0143,12.5742,53.3269,16.1273,66.1071l0.373,1.3436c1.8698,6.7287,6.4602,11.3353,12.2798,12.323
			c6.3513,1.0654,12.9613-2.3615,17.7437-9.2476l7.1503-11.264l-1.9651,63.1608l-8.0416,169.0818
			c-0.0215,0.4507,0.1434,0.8929,0.455,1.2206c0.3127,0.3278,0.7462,0.5133,1.1991,0.5133h3.6242v10.9732
			c-1.6069,4.858-6.3939,7.0146-18.1221,8.1863c-4.3898,0.4399-5.8304,2.9244-5.7312,4.9193
			c0.1207,2.4025,2.5275,4.8869,6.3469,4.8869h31.848c3.5121,0,6.3696-2.8575,6.3696-6.3707v-10.3842v-0.6254v-11.5854h1.2983
			c0.8594,0,1.5754-0.6556,1.6498-1.5118c2.0369-23.3196,6.9734-75.4797,13.1198-110.2769
			c0.3602,41.3317,3.4678,109.3452,3.5045,110.1324c0.0399,0.867,0.743,1.5571,1.611,1.5808l4.2248,0.1116V902.71
			c-1.7642,5.6444-6.8257,7.0471-18.1221,8.1769c-4.3898,0.4399-5.8304,2.9244-5.7312,4.9193
			c0.1207,2.4025,2.5275,4.8869,6.3469,4.8869h31.8469c3.5131,0,6.3707-2.8575,6.3707-6.3707v-10.3842v-0.6254v-11.0031
			l2.4607,0.0647c0.014,0,0.0291,0,0.0432,0c0.4399,0,0.8637-0.1747,1.1743-0.4896c0.3214-0.3213,0.496-0.7634,0.481-1.2206
			c-0.0281-0.8691-2.7626-87.5029,0.1477-128.8066c1.566-22.2175,2.1643-32.3456,2.2567-37.0883
			c0.051-0.1607,0.0995-0.3232,0.0995-0.4952v-3.6191c1.9357,1.2185,3.9656,1.8906,6.0364,1.9736
			c0.1499,0.0065,0.2997,0.0086,0.4496,0.0086c3.6706,0,7.1934-1.7986,10.2148-5.2212c2.7432-3.1098,3.8032-5.8574,3.2382-8.4022
			c-0.6028-2.7151-2.9622-4.8869-7.4242-6.83c-2.5459-1.1085-3.993-2.4564-4.3004-4.0027c-0.0941-0.4739-0.059-0.9451,0.0236-1.4056
			C754.3217,696.6746,754.5132,696.5473,754.6647,696.3651z M760.0962,715.2248c-2.4628,2.7885-5.2352,4.2464-8.0485,4.0933
			c-2.0907-0.0839-4.1804-1.0573-6.1679-2.8138v-22.1383l4.9807,1.7932c-0.1566,0.8357-0.1989,1.7239-0.0194,2.6451
			c0.5229,2.6828,2.6192,4.8438,6.2305,6.416c3.3148,1.4449,5.1694,2.9632,5.5134,4.5117
			C762.8998,711.1487,762.062,712.997,760.0962,715.2248z M721.8182,901.3594v-9.5085l14.086,0.3712v9.4026L721.8182,901.3594z
			 M675.6988,901.3594v-9.632h14.0861v9.8973L675.6988,901.3594z M678.9594,651.7558l-0.0002,0.0005L678.9594,651.7558z
			 M742.5671,722.5897c-8.0787-0.1445-43.2619-0.8022-64.1024-1.7296l2.1356-68.6212l8.8945-14.8467l-1.4212-0.8519l-1.4212-0.8519
			l-9.1045,15.1975l-10.3429,16.2957c-3.9919,5.7474-9.3932,8.6782-14.43,7.8134c-4.5214-0.7656-8.1251-4.4836-9.6423-9.9442
			l-0.3731-1.3414c-3.6878-13.2654-8.7149-31.3487-15.7024-64.1402l17.7221-2.176c1.9561,6.4763,10.4521,34.8338,13.0109,47.3077
			c0.1466,0.716,0.7451,1.2508,1.473,1.3177c0.7235,0.0518,1.4115-0.3516,1.6854-1.0287
			c0.0679-0.1682,6.8116-16.8303,13.1996-29.962c5.9803-12.2906,12.0135-15.0942,26.0057-16.8281
			c1.9377-0.2372,3.5541-1.6584,4.0232-3.5369l0.6405-2.562h18.7723l0.1348,2.4326c0.1229,2.2084,1.6218,4.1343,3.7288,4.7877
			c2.2644,0.7031,6.5798,2.1933,10.0509,4.2787c8.303,4.9818,20.2906,20.3521,28.2227,30.5228
			c3.3525,4.2982,6.0008,7.6948,7.7228,9.5215h-0.001c5.4562,5.797,10.2849,14.5248,2.299,23.1772
			c-7.601,8.234-19.7752,22.7934-22.8904,26.5352l-6.9888-2.5168l-0.172-17.9283l11.556-14.5203
			c0.4313-0.5413,0.4799-1.2961,0.1197-1.8892l-12.6292-20.8201c-0.3871-0.6405-1.1549-0.9403-1.8774-0.7332
			c-0.7192,0.2092-1.2088,0.8755-1.1948,1.6239l0.7074,35.8c0,0,0.0001,0.0005,0.0001,0.0011l0.1885,19.6501V722.5897z
			 M626.1094,588.7883c-1.2401,0-2.2914-0.5327-3.1271-1.5808c-1.4741-1.8547-2.066-5.0443-1.4395-7.7552
			c0.8475-3.6749,2.6343-5.2687,11.5078-5.6245c0.4799-0.0194,0.9274-0.2437,1.2271-0.619
			c0.2997-0.3731,0.4227-0.8605,0.3364-1.3306c-0.0302-0.1703-0.7753-4.2141-2.6246-9.7609
			c-0.6923-2.0768-0.1003-3.4959,0.426-3.7051c0.0421-0.0173,0.0927-0.0259,0.152-0.0259c0.5057,0,1.6099,0.675,2.7217,3.0516
			c5.2849,11.5029,6.5375,22.5699,6.7617,32.9536l-12.5476,1.5409c-0.552-1.4727-1.1556-3.3638-1.787-5.8889
			C627.5317,589.3058,626.8696,588.7883,626.1094,588.7883z M695.1322,572.6545c-2.0887-2.5621-1.8396-5.1436,5.3538-11.3589
			c0.3633-0.2717,0.6287-0.7375,0.6815-1.1883c0.11-0.9338-0.4173-1.57-1.6929-3.1034c-0.6308-0.7613-2.1545-2.5944-2.6138-3.6145
			c0.027,0,0.055-0.0021,0.0852-0.0021c4.4949-0.1267,16.322-1.5193,20.9042-2.0757c0.3437,0.6982,0.7197,1.3665,1.0599,1.9658
			c1.4633,2.5771,2.4262,4.4642,1.473,5.2838c-1.7663,1.5161-1.8267,2.9912-1.8763,4.1752
			c-0.0432,1.046-0.0809,1.9496-1.3619,3.5023c-0.4249,0.5154-0.4993,1.2358-0.1865,1.8267
			c0.3105,0.5909,0.9413,0.9382,1.6132,0.8777c1.5732-0.1401,2.7195,0.1165,3.0462,0.6945c0.3343,0.5909,0.0334,1.7339-0.73,2.7799
			c-1.7426,2.3852-2.7066,6.3836-1.3037,8.9457c0.3691,0.6729,1.1393,1.6563,2.6027,2.0978
			c-0.2922,1.8067-0.3023,3.6544-0.1597,5.3274h-15.939c-0.0551-1.4625-0.1779-3.0443-0.425-4.5246
			c-0.5435-3.25-3.3805-5.4756-6.1248-7.628C697.9541,575.3935,696.3162,574.1082,695.1322,572.6545z M745.1055,642.6651
			l8.8357,14.568l-8.3408,10.4812L745.1055,642.6651z"/>
		<path class="st3" d="M704.7548,568.2723c0-1.6447-1.3334-2.9783-2.9785-2.9783c-1.645,0-2.9784,1.3336-2.9784,2.9783
			c0,1.645,1.3334,2.9786,2.9784,2.9786C703.4213,571.2509,704.7548,569.9173,704.7548,568.2723z"/>
		<path class="st3" d="M708.7811,559.1271c0.7315,0,1.3246-0.5931,1.3246-1.3247s-0.5931-1.3247-1.3246-1.3247
			c-0.7316,0-1.3247,0.5931-1.3247,1.3247S708.0494,559.1271,708.7811,559.1271z"/>
	</g>
	<g>
		<path class="st2" d="M389.2892,582.4025c0.1251,0.496,0.9144,1.0804,2.0208,0.8389c3.7601-0.8174,5.8488-1.2164,5.8488-1.2164
			c0.8993-0.1812,1.7598,0.4098,1.9366,1.3047c0.1768,0.8929-0.4012,1.762-1.294,1.9432c-0.7117,0.1466-2.878,0.5887-3.1843,0.9295
			c-0.1068,0.5671,0.0216,0.7117,0.0906,0.7893c0.5952,0.6707,2.6149,0.936,3.8615,0.854c0.785-0.0302,1.501,0.4723,1.6994,1.2358
			c0.1995,0.7656-0.1693,1.5635-0.8799,1.9086c0,0-0.8174,0.4529-0.7085,0.8821c0.1941,0.757,0.5812,1.3306,3.4916,1.1603
			c0.0464-0.0021,0.0916-0.0043,0.138-0.0043c2.4635,0,4.1713,3.6784,5.2933,7.5309l8.634-0.4097l-5.9403-18.2321
			c-1.8277-4.7317-9.0848-3.7396-19.4064-0.7721C390.0009,581.4019,389.1609,581.8892,389.2892,582.4025z"/>
		<path class="st2" d="M379.7399,850.5703h-19.3978c1.3867,20.3311,2.7248,47.3867,1.1805,60.3289l27.1595,2.2316l0.0636-0.4022
			c0.0073-0.4661,0.0638-0.9042,0.1442-1.3247c-6.218-2.5588-14.6427-7.3026-13.8366-14.0219
			C375.6542,892.369,377.9173,869.3276,379.7399,850.5703z"/>
		<path class="st2" d="M368.2211,562.3933c-1.6746,0.2631-1.8601,2.2861-1.8806,2.6872c-0.0722,1.4212,0.5381,3.1293,2.0445,3.5261
			c3.6254,0.9543,3.7815,7.8146,2.2678,23.4145c3.1758-0.2086,5.7581-0.0232,8.0473,0.8249
			c0.4846-3.3077,1.4897-7.9908,3.4905-10.1609c0.1326-0.1423,0.289-0.261,0.4615-0.3494c8.0636-4.1342,7.8534-8.538,7.6312-13.2007
			c-0.0302-0.6362,0.3062-1.2336,0.8659-1.5355l3.6016-1.9517c-1.129-1.2271-2.7335-3.1185-4.4114-5.5684
			c-1.1214-1.639-1.8018-3.3255-2.4607-4.9538c-0.5428-1.3425-1.0332-2.5532-1.7021-3.5919
			C382.6107,556.674,374.6535,561.3787,368.2211,562.3933z M386.4047,575.4603h-5.4304v-3.3126h5.4304V575.4603z M385.0806,563.7693
			c-0.7317,0-1.3247-0.5931-1.3247-1.3247s0.593-1.3247,1.3247-1.3247c0.7315,0,1.3246,0.5931,1.3246,1.3247
			S385.812,563.7693,385.0806,563.7693z"/>
		<path class="st0" d="M429.4887,650.1163c-2.1383-18.8446-7.0263-41.2325-8.2965-46.8851l-14.6338,0.6945l5.2331,39.835
			c0.1024,0.7828-0.3602,1.5269-1.1064,1.7835c-0.7451,0.2567-1.5679-0.0518-1.9668-0.7332
			c-0.1294-0.2222-13.0131-22.319-21.0002-36.9236c-6.1436-11.2331-9.2804-13.256-17.3959-12.5643
			c-0.0523,0.5076-0.1007,0.9918-0.1558,1.5159c-0.3871,3.6749-0.7203,6.8473-0.7785,8.6912
			c-0.1003,3.2091-3.1713,5.4498-9.129,6.6597c-2.74,0.5564-6.5777,0.908-10.3216,0.908c-0.055,0-0.1085-0.003-0.1635-0.0032
			c-3.6718,14.9158-3.3836,38.1467-3.0607,63.4943c0.1844,14.512,0.3763,29.5199-0.1477,44.3273
			c-1.1473,32.4313-7.3347,57.5884-12.7942,79.7822c-4.2281,17.1926-7.9019,32.1272-8.1671,46.5594h79.834
			c-0.3623-10.3303-2.3906-64.5565-5.687-86.388c-3.4971-23.1713-6.5959-93.3584-6.8914-100.1874
			c-7.601-8.6844-18.5609-23.3986-18.6722-23.549l1.3294-0.988l-0.0004-0.0009l0.0004,0.0005l1.3286-0.9872
			c0.1121,0.1509,11.3687,15.2667,18.8856,23.7811l-0.0036,0.0032c0.0078,0.0089,0.0186,0.0135,0.0263,0.0226
			c6.4311,7.5913,18.8349,11.3266,26.5405,8.0032C427.9726,664.5139,430.4603,658.6867,429.4887,650.1163z"/>
		<path class="st3" d="M432.7797,649.741c-2.4769-21.8359-8.6049-48.3408-8.6664-48.6061
			c-0.1812-0.7785-0.8756-1.3263-1.6919-1.2789l-2.7537,0.1305l-6.2513-19.1778c-2.9578-7.6771-13.2434-5.6577-20.778-3.5967
			c1.0363-2.472,1.0864-4.936,0.9996-7.195l4.6205-2.5017c0.4712-0.2545,0.7883-0.7203,0.8551-1.2509
			c0.0658-0.5305-0.1294-1.0632-0.523-1.4255c-0.0259-0.0237-2.6764-2.4801-5.5166-6.6316
			c-0.9187-1.3414-1.5323-2.8575-2.1243-4.324c-0.7987-1.9752-1.6168-3.9897-3.1468-5.6625
			c0.1305-0.4769,0.2252-0.9519,0.2547-1.4221c0.0313-0.5046-0.1693-0.9963-0.5446-1.335
			c-4.8556-4.3693-19.1842-10.423-30.1442,0.0323c-7.504,7.1536-9.115,17.6628-10.5373,26.9363
			c-0.5543,3.6145-1.0783,7.0284-1.9032,10.0132c-1.0643,3.8475-2.4629,7.876-3.8151,11.7709
			c-3.0462,8.7732-4.5839,13.4638-3.47,15.8749c0.8007,1.7334,4.4808,2.602,8.8459,2.8882
			c-3.6925,15.5676-3.4076,38.6128-3.0888,63.6501c0.1844,14.4753,0.3753,29.4401-0.1456,44.1699
			c-1.1344,32.0884-7.2786,57.0686-12.7003,79.1072c-4.4416,18.0596-8.2782,33.6584-8.2782,49.0071
			c0,0.9144,0.7419,1.6563,1.6563,1.6563h33.075c1.4266,20.9063,2.833,49.0325,1.1195,60.9117
			c-0.119,0.1812-0.2103,0.3828-0.2524,0.6082l-0.8594,4.5958c-0.2664,1.4234,0.1111,2.8791,1.0373,3.9941
			c0.9252,1.115,2.2882,1.7555,3.7374,1.7555h2.8651h24.4939h6.3491h4.2216h2.7195c4.5246,0,7.0651-1.0891,7.5504-3.2349
			c0.2545-1.1258,0.0442-3.3169-4.2249-5.3528c-1.3716-0.6534-2.8349-1.5032-4.3844-2.4003
			c-2.0175-1.171-4.1041-2.3809-6.403-3.4204c-1.4859-0.675-2.9471-0.6276-4.1095,0.123c-0.1278,0.0825-0.225,0.2065-0.3424,0.3041
			c-5.7087-2.3475-12.7101-6.2896-12.1833-10.6796c0.6075-5.064,2.8962-28.372,4.7259-47.2042h24.0845
			c0.4486,0,0.8778-0.1812,1.1905-0.5046c0.3116-0.3214,0.4799-0.757,0.4648-1.2056c-0.0205-0.6384-2.12-64.233-5.7808-88.4864
			c-3.1325-20.7553-5.9566-79.8275-6.6953-96.1769c7.7477,6.554,19.3568,9.2304,27.277,5.8121
			C427.6912,668.2427,434.3131,663.2652,432.7797,649.741z M422.2942,666.9681c-7.7056,3.3234-20.1095-0.4119-26.5405-8.0032
			c-0.0077-0.0092-0.0185-0.0138-0.0263-0.0226l0.0036-0.0032c-7.5169-8.5144-18.7734-23.6302-18.8856-23.7811l-1.3286,0.9872
			v0.0003l-1.3294,0.988c0.1113,0.1505,11.0712,14.8646,18.6722,23.549c0.2954,6.829,3.3943,77.0161,6.8914,100.1874
			c3.2964,21.8315,5.3247,76.0577,5.687,86.388h-79.834c0.2653-14.4322,3.9391-29.3668,8.1671-46.5594
			c5.4595-22.1938,11.6469-47.3509,12.7942-79.7822c0.5241-14.8074,0.3321-29.8154,0.1477-44.3273
			c-0.323-25.3476-0.6111-48.5785,3.0607-63.4943c0.055,0.0002,0.1085,0.0032,0.1635,0.0032c3.7439,0,7.5816-0.3516,10.3216-0.908
			c5.9577-1.2098,9.0287-3.4506,9.129-6.6597c0.0582-1.8439,0.3914-5.0163,0.7785-8.6912c0.0551-0.5241,0.1035-1.0082,0.1558-1.5159
			c8.1155-0.6917,11.2523,1.3312,17.3959,12.5643c7.9871,14.6046,20.8708,36.7014,21.0002,36.9236
			c0.399,0.6815,1.2217,0.9899,1.9668,0.7332c0.7462-0.2567,1.2088-1.0007,1.1064-1.7835l-5.2331-39.835l14.6338-0.6945
			c1.2703,5.6525,6.1583,28.0405,8.2965,46.8851C430.4603,658.6867,427.9726,664.5139,422.2942,666.9681z M388.89,911.4039
			c-0.0804,0.4205-0.1369,0.8586-0.1442,1.3247l-0.0636,0.4022l-27.1595-2.2316c1.5443-12.9422,0.2062-39.9979-1.1805-60.3289
			h19.3978c-1.8226,18.7573-4.0857,41.7986-4.6866,46.8117C374.2473,904.1013,382.672,908.845,388.89,911.4039z M390.3395,560.0793
			c1.6779,2.45,3.2824,4.3413,4.4114,5.5684l-3.6016,1.9517c-0.5596,0.3019-0.8961,0.8993-0.8659,1.5355
			c0.2221,4.6627,0.4324,9.0665-7.6312,13.2007c-0.1725,0.0884-0.3289,0.2071-0.4615,0.3494
			c-2.0008,2.1701-3.0059,6.8532-3.4905,10.1609c-2.2892-0.8481-4.8715-1.0335-8.0473-0.8249
			c1.5137-15.5999,1.3576-22.4601-2.2678-23.4145c-1.5064-0.3968-2.1167-2.1049-2.0445-3.5261
			c0.0205-0.4011,0.206-2.4241,1.8806-2.6872c6.4324-1.0146,14.3896-5.7194,17.9555-10.8597
			c0.6689,1.0387,1.1593,2.2494,1.7021,3.5919C388.5376,556.7538,389.218,558.4402,390.3395,560.0793z M410.2969,581.9173
			l5.9403,18.2321l-8.634,0.4097c-1.122-3.8525-2.8298-7.5309-5.2933-7.5309c-0.0464,0-0.0917,0.0022-0.138,0.0043
			c-2.9104,0.1703-3.2975-0.4033-3.4916-1.1603c-0.1089-0.4291,0.7095-0.8821,0.7095-0.8821
			c0.7095-0.345,1.0783-1.143,0.8788-1.9086c-0.1984-0.7635-0.9144-1.2659-1.6994-1.2358c-1.2466,0.082-3.2662-0.1833-3.8615-0.854
			c-0.069-0.0776-0.1973-0.2222-0.0906-0.7893c0.3062-0.3408,2.4726-0.7829,3.1843-0.9295c0.8928-0.1812,1.4708-1.0503,1.294-1.9432
			c-0.1768-0.895-1.0374-1.4859-1.9366-1.3047c0,0-2.0887,0.399-5.8488,1.2164c-1.1064,0.2415-1.8957-0.3429-2.0208-0.8389
			c-0.1283-0.5133,0.7117-1.0007,1.6013-1.2573C401.2121,578.1777,408.4692,577.1856,410.2969,581.9173z M407.4286,635.9818
			c-4.4804-7.7574-11.662-20.2809-16.8033-29.6816c-3.2587-5.9601-5.9125-9.624-8.8108-11.7655
			c0.4172-3.3832,1.3118-7.6981,2.6428-9.4039c0.7-0.3677,1.3305-0.743,1.9298-1.1209c0.7823,1.5538,2.6145,2.7955,4.8658,2.5831
			c0.0022,1.2164,0.5057,2.066,0.977,2.5988c0.8335,0.9381,2.0574,1.4385,3.2306,1.7015c-0.1391,0.5392-0.1574,1.143,0.0108,1.7986
			c0.9726,3.8043,4.9182,3.7633,6.6607,3.6598c0.5425,0.481,1.356,2.2925,2.0606,4.4567c-0.2982,0.0944-0.5768,0.241-0.7807,0.4842
			c-0.2976,0.3558-0.4324,0.8195-0.372,1.2789L407.4286,635.9818z"/>
		<path class="st3" d="M385.0806,561.1199c-0.7317,0-1.3247,0.5931-1.3247,1.3247s0.593,1.3247,1.3247,1.3247
			c0.7315,0,1.3246-0.5931,1.3246-1.3247S385.812,561.1199,385.0806,561.1199z"/>
		<rect x="380.9743" y="572.1478" class="st3" width="5.4304" height="3.3126"/>
	</g>
</g>
</svg>
