<?xml version="1.0" encoding="utf-8"?>
<!-- Generator: Adobe Illustrator 23.1.0, SVG Export Plug-In . SVG Version: 6.00 Build 0)  -->
<svg version="1.1" xmlns="http://www.w3.org/2000/svg" xmlns:xlink="http://www.w3.org/1999/xlink" x="0px" y="0px"
	 width="102.00269px" height="102.00269px" viewBox="0 0 102.00269 102.00269"
	 style="enable-background:new 0 0 102.00269 102.00269;" xml:space="preserve">
<style type="text/css">
	.st0{fill:#0D122A;}
	.st1{fill:none;}
	.st2{display:none;}
	.st3{display:inline;}
	.st4{fill:#FAFAFA;}
</style>
<g id="Black">
	<g>
		<g>
			<g>
				<g>
					<path class="st0" d="M77.15514,51.00137c0,14.4444-11.7095,26.1539-26.1538,26.1539
						c-14.44439,0-26.15388-11.7095-26.15388-26.1539s11.70949-26.1539,26.15388-26.1539
						C65.44565,24.84747,77.15514,36.55697,77.15514,51.00137z M51.00135,17.00137c-18.77769,0-34,15.2223-34,34s15.22231,34,34,34
						c18.7776,0,34-15.22231,34-34S69.77895,17.00137,51.00135,17.00137z"/>
					<path class="st0" d="M75.84744,51.00137c0,13.7221-11.124,24.8461-24.8461,24.8461
						c-13.72221,0-24.84616-11.124-24.84616-24.8461s11.12395-24.8462,24.84616-24.8462
						C64.72344,26.15517,75.84744,37.27927,75.84744,51.00137z M51.00135,34.00137c-9.38886,0-17.00002,7.6111-17.00002,17
						c0,9.3888,7.61116,17,17.00002,17c9.3888,0,17-7.6112,17-17C68.00134,41.61247,60.39014,34.00137,51.00135,34.00137z"/>
				</g>
			</g>
		</g>
	</g>
</g>
<g id="White" class="st2">
	<g class="st3">
		<g>
			<g>
				<g>
					<path class="st4" d="M77.15514,51.00137c0,14.4444-11.7095,26.1539-26.1538,26.1539
						c-14.44439,0-26.15388-11.7095-26.15388-26.1539s11.70949-26.1539,26.15388-26.1539
						C65.44565,24.84747,77.15514,36.55697,77.15514,51.00137z M51.00135,17.00137c-18.77769,0-34,15.2223-34,34s15.22231,34,34,34
						c18.7776,0,34-15.22231,34-34S69.77895,17.00137,51.00135,17.00137z"/>
					<path class="st4" d="M75.84744,51.00137c0,13.7221-11.124,24.8461-24.8461,24.8461
						c-13.72221,0-24.84616-11.124-24.84616-24.8461s11.12395-24.8462,24.84616-24.8462
						C64.72344,26.15517,75.84744,37.27927,75.84744,51.00137z M51.00135,34.00137c-9.38886,0-17.00002,7.6111-17.00002,17
						c0,9.3888,7.61116,17,17.00002,17c9.3888,0,17-7.6112,17-17C68.00134,41.61247,60.39014,34.00137,51.00135,34.00137z"/>
				</g>
			</g>
		</g>
	</g>
</g>
</svg>
