<svg xmlns="http://www.w3.org/2000/svg" width="155.38" height="32"><style>.st7{fill:#0d122a}</style><g id="ARTWORK"><path class="st7" d="M0 16c0 8.84 7.16 16 16 16s16-7.16 16-16S24.84 0 16 0 0 7.16 0 16zm28.56 0c0 6.93-5.64 12.56-12.56 12.56S3.44 22.93 3.44 16 9.07 3.44 16 3.44 28.56 9.07 28.56 16z"/><path class="st7" d="M4.56 16c0 6.31 5.13 11.44 11.44 11.44S27.44 22.31 27.44 16 22.31 4.56 16 4.56 4.56 9.69 4.56 16zM24 16c0 4.42-3.58 8-8 8s-8-3.58-8-8 3.58-8 8-8 8 3.58 8 8z"/><g><path class="st7" d="M102.65 23.99V8h3v13.32h8.93v2.67h-11.93zM126.36 23.99l-.07-1.68h-.05c-.85 1.2-2.33 1.93-4.23 1.93-3.35 0-5.8-2.55-5.8-6.1s2.45-6.13 5.8-6.13c1.9 0 3.35.72 4.2 1.93h.05l.1-1.68h2.2v11.73h-2.2zm-.38-5.85c0-2.23-1.45-3.75-3.55-3.75-2.1 0-3.55 1.52-3.55 3.75 0 2.17 1.45 3.72 3.55 3.72 2.1.01 3.55-1.54 3.55-3.72zM143.92 18.14c0 3.55-2.45 6.1-5.8 6.1-1.93 0-3.38-.72-4.23-1.93h-.05l-.07 1.68h-2.23V8h2.65v5.52h.05c.88-.95 2.17-1.5 3.88-1.5 3.35 0 5.8 2.57 5.8 6.12zm-2.67 0c0-2.23-1.47-3.75-3.55-3.75-2.1 0-3.58 1.52-3.58 3.75 0 2.17 1.47 3.72 3.58 3.72 2.07.01 3.55-1.54 3.55-3.72zM154.63 12.87v2.72h-.12c-.8-.82-2.02-1.25-3.55-1.25-1.27 0-2.17.58-2.17 1.4 0 .67.53.97 2.25 1.07 3.13.18 4.35 1.33 4.35 3.7 0 2.3-1.78 3.72-4.7 3.72-1.95 0-3.48-.4-4.45-1.15V20.3h.13c.98 1.05 2.4 1.6 4.2 1.6 1.38 0 2.23-.55 2.23-1.4 0-.78-.53-1.13-2.43-1.28-3.05-.25-4.17-1.2-4.17-3.43 0-2.3 1.87-3.8 4.7-3.8 1.51.03 2.88.33 3.73.88z"/><g><path class="st7" d="M51.25 8c4.03 0 6.1 1.82 6.1 5.37 0 3.52-2.08 5.35-6.1 5.35h-3.58v5.27h-3V8h6.58zm-.12 8.05c2.17 0 3.2-.87 3.2-2.67 0-1.82-1.03-2.7-3.2-2.7h-3.45v5.37h3.45zM68.52 23.99l-.1-1.78h-.05c-.75 1.3-2.08 2.02-3.93 2.02-2.95 0-4.7-1.9-4.7-5.1v-6.91h2.65v6.61c0 1.9 1 3.02 2.73 3.02 1.87 0 2.98-1.3 2.98-3.45v-6.18h2.65v11.76h-2.23zM94.01 8h2.65v15.99h-2.65V8zM90.96 12.24V24h-2.65V12.24h2.65zM86 18.14c0 3.55-2.45 6.1-5.8 6.1-1.7 0-3-.55-3.87-1.5h-.05v5.52h-2.65V12.24h2.23l.07 1.68h.05c.85-1.2 2.3-1.93 4.23-1.93 3.34 0 5.79 2.6 5.79 6.15zm-2.67-.03c0-2.23-1.47-3.75-3.55-3.75-2.1 0-3.58 1.53-3.58 3.75 0 2.17 1.48 3.75 3.58 3.75 2.07.01 3.55-1.57 3.55-3.75zM88.31 8h2.65v2.65h-2.65z"/></g></g></g></svg>