<?xml version="1.0" standalone="no"?>
<!DOCTYPE svg PUBLIC "-//W3C//DTD SVG 20010904//EN"
 "http://www.w3.org/TR/2001/REC-SVG-20010904/DTD/svg10.dtd">
<svg version="1.0" xmlns="http://www.w3.org/2000/svg"
 width="700.000000pt" height="700.000000pt" viewBox="0 0 700.000000 700.000000"
 preserveAspectRatio="xMidYMid meet">
<metadata>
Created by potrace 1.11, written by Peter Selinger 2001-2013
</metadata>
<g transform="translate(0.000000,700.000000) scale(0.100000,-0.100000)"
fill="#000000" stroke="none">
<path d="M3239 6966 c-2 -2 -38 -7 -79 -10 -41 -3 -84 -8 -95 -10 -11 -2 -42
-7 -70 -10 -273 -38 -582 -125 -857 -241 -835 -356 -1504 -1034 -1852 -1877
-77 -187 -174 -517 -200 -678 -28 -175 -38 -254 -51 -405 -5 -61 -6 -416 -1
-465 2 -19 8 -73 12 -120 4 -47 8 -87 9 -90 0 -3 5 -32 10 -65 5 -33 9 -62 10
-65 0 -3 4 -27 9 -55 13 -84 64 -293 102 -415 97 -313 260 -647 450 -923 43
-62 80 -114 83 -117 3 -3 26 -32 51 -65 53 -72 190 -226 280 -315 459 -454
1014 -765 1634 -914 78 -19 161 -37 186 -41 25 -4 52 -9 60 -10 191 -34 330
-45 575 -45 222 0 322 7 505 36 52 8 111 17 130 20 117 18 497 124 585 163 11
5 75 33 143 61 796 335 1460 991 1806 1785 26 61 54 124 62 142 40 90 150 463
168 570 40 235 43 258 51 353 4 36 8 85 10 110 6 58 5 400 0 465 -15 175 -19
212 -46 370 -49 292 -152 612 -284 889 -106 222 -275 494 -405 652 -14 17 -34
42 -44 55 -294 368 -738 717 -1187 932 -219 105 -495 202 -724 253 -94 21
-105 24 -140 29 -16 2 -43 7 -60 10 -64 11 -92 15 -145 21 -30 3 -68 8 -85 11
-35 6 -601 14 -606 9z m501 -811 c30 -3 66 -8 80 -10 14 -2 50 -7 80 -10 30
-4 64 -9 75 -11 11 -2 34 -7 50 -10 140 -25 347 -90 520 -162 77 -32 260 -125
303 -153 24 -16 45 -29 48 -29 18 0 285 -197 363 -268 283 -257 479 -514 629
-824 69 -142 103 -221 128 -298 9 -30 21 -64 26 -75 9 -21 63 -232 72 -281 22
-117 27 -147 31 -190 27 -263 25 -505 -5 -699 -5 -33 -12 -80 -15 -105 -4 -25
-24 -112 -45 -195 -115 -445 -342 -850 -661 -1181 -234 -244 -544 -462 -829
-585 -52 -22 -108 -47 -125 -54 -88 -39 -364 -117 -490 -139 -268 -47 -581
-53 -845 -15 -76 10 -101 15 -195 35 -124 27 -164 37 -265 71 -753 250 -1357
819 -1648 1554 -77 192 -139 425 -157 584 -4 33 -9 62 -10 65 -8 13 -19 208
-19 330 0 123 9 275 18 325 2 11 7 43 10 70 12 87 16 108 37 195 66 288 173
549 324 797 55 89 186 277 204 293 3 3 40 43 81 90 382 430 885 722 1445 839
98 20 297 48 385 53 77 5 342 0 400 -7z"/>
<path d="M3427 6044 c-1 -1 -50 -5 -108 -8 -59 -4 -115 -8 -125 -10 -11 -2
-55 -9 -99 -16 -207 -30 -479 -114 -684 -212 -546 -260 -1010 -738 -1241
-1280 -17 -40 -35 -82 -40 -93 -31 -69 -108 -331 -124 -425 -3 -19 -8 -46 -11
-60 -3 -14 -8 -47 -11 -75 -3 -27 -7 -52 -9 -55 -5 -9 -18 -222 -18 -305 -1
-579 193 -1133 557 -1589 396 -498 1005 -850 1606 -930 25 -3 56 -8 69 -11 29
-5 248 -18 316 -18 56 0 256 12 295 18 14 2 48 6 75 10 28 4 59 9 70 11 11 2
34 7 50 9 224 39 536 156 761 286 94 54 255 159 274 179 3 3 25 21 50 40 157
121 394 371 493 520 9 14 30 45 48 69 38 54 133 222 176 311 115 237 203 545
228 795 3 33 8 75 11 94 6 40 6 349 -1 406 -2 22 -7 65 -10 95 -3 30 -8 64
-10 75 -3 11 -7 37 -10 58 -35 252 -160 595 -309 847 -45 76 -65 106 -140 215
-135 195 -400 451 -626 607 -260 179 -630 337 -906 387 -32 6 -70 13 -84 16
-14 3 -45 7 -70 10 -25 3 -54 8 -65 10 -43 9 -371 25 -378 19z m268 -818 c165
-19 374 -77 513 -142 41 -19 75 -34 78 -34 12 0 184 -108 255 -161 97 -72 265
-237 330 -324 24 -33 46 -62 49 -65 14 -12 92 -143 128 -216 75 -149 121 -284
156 -455 38 -186 40 -453 5 -630 -5 -30 -12 -65 -15 -79 -19 -99 -67 -238
-125 -360 -171 -361 -454 -646 -809 -818 -175 -85 -285 -120 -496 -158 -134
-24 -427 -24 -539 1 -11 3 -31 7 -45 9 -131 22 -282 72 -435 145 -352 169
-639 456 -809 811 -189 393 -222 825 -97 1257 25 85 93 249 133 316 15 26 28
50 28 53 0 9 81 126 134 194 177 229 426 419 692 530 76 31 205 75 248 85 115
23 188 36 244 41 37 4 68 7 69 8 6 5 253 -2 308 -8z"/>
</g>
</svg>
