<svg width="174" height="36" viewBox="0 0 174 36" fill="none" xmlns="http://www.w3.org/2000/svg">
<path d="M31.8477 18C31.8477 25.6463 25.6491 31.8477 18 31.8477C10.3509 31.8477 4.15516 25.6463 4.15516 18C4.15516 10.3537 10.3537 4.15231 18.0028 4.15231C25.652 4.15231 31.8477 10.3537 31.8477 18ZM18 0C8.05953 0 0 8.05953 0 18C0 27.9405 8.05953 36 18 36C27.9405 36 36 27.9405 36 18C36 8.05953 27.9405 0 18 0Z" fill="#0D122A"/>
<path d="M31.1541 18.0009C31.1541 25.2653 25.2662 31.156 17.9989 31.156C10.7317 31.156 4.84375 25.2653 4.84375 18.0009C4.84375 10.7365 10.7345 4.8457 17.9989 4.8457C25.2633 4.8457 31.1541 10.7365 31.1541 18.0009ZM17.9989 9.00086C13.0287 9.00086 8.99891 13.0306 8.99891 18.0009C8.99891 22.9711 13.0287 27.0009 17.9989 27.0009C22.9691 27.0009 26.9989 22.9711 26.9989 18.0009C26.9989 13.0306 22.9691 9.00086 17.9989 9.00086Z" fill="#0D122A"/>
<path d="M114.939 26.8689V9H118.291V23.8794H128.263V26.8689H114.939V26.8689Z" fill="#0D122A"/>
<path d="M141.424 26.8692L141.341 24.9968H141.284C140.335 26.3391 138.685 27.1484 136.565 27.1484C132.823 27.1484 130.084 24.2985 130.084 20.3343C130.084 16.3673 132.823 13.4917 136.565 13.4917C138.688 13.4917 140.307 14.3011 141.258 15.6434H141.315L141.427 13.771H143.886V26.872H141.424V26.8692ZM141.005 20.3315C141.005 17.8464 139.386 16.1421 137.038 16.1421C134.692 16.1421 133.071 17.8464 133.071 20.3315C133.071 22.7624 134.689 24.4923 137.038 24.4923C139.383 24.4952 141.005 22.7624 141.005 20.3315Z" fill="#0D122A"/>
<path d="M161.048 20.3297C161.048 24.2967 158.309 27.1438 154.567 27.1438C152.415 27.1438 150.796 26.3344 149.847 24.9921H149.79L149.708 26.8645H147.223V8.99561H150.184V15.16H150.241C151.218 14.0998 152.672 13.4842 154.57 13.4842C158.312 13.4871 161.048 16.3655 161.048 20.3297ZM158.058 20.3297C158.058 17.8446 156.411 16.1403 154.091 16.1403C151.745 16.1403 150.095 17.8446 150.095 20.3297C150.095 22.7606 151.743 24.4905 154.091 24.4905C156.411 24.4934 158.058 22.7606 158.058 20.3297Z" fill="#0D122A"/>
<path d="M173.018 14.4397V17.4834H172.878C171.983 16.5628 170.615 16.0869 168.911 16.0869C167.486 16.0869 166.48 16.731 166.48 17.6515C166.48 18.4067 167.067 18.7402 168.994 18.8513C172.485 19.048 173.853 20.3333 173.853 22.9865C173.853 25.5571 171.869 27.1474 168.6 27.1474C166.423 27.1474 164.719 26.7 163.627 25.8621V22.7642H163.767C164.856 23.9384 166.449 24.5511 168.461 24.5511C169.997 24.5511 170.946 23.9355 170.946 22.9865C170.946 22.1202 170.359 21.7297 168.236 21.5616C164.827 21.2823 163.57 20.2221 163.57 17.7342C163.57 15.1635 165.665 13.4878 168.823 13.4878C170.533 13.4906 172.069 13.8269 173.018 14.4397Z" fill="#0D122A"/>
<path d="M57.5111 9.00342C62.0083 9.00342 64.3252 11.0411 64.3252 15.0082C64.3252 18.9467 62.0054 20.9873 57.5111 20.9873H53.5155V26.8723H50.1641V9.00342H57.5111ZM57.3715 17.9977C59.8024 17.9977 60.9481 17.0202 60.9481 15.0082C60.9481 12.9705 59.8024 11.9901 57.3715 11.9901H53.5155V17.9949H57.3715V17.9977Z" fill="#0D122A"/>
<path d="M76.8085 26.8715L76.6973 24.888H76.6403C75.8025 26.3415 74.3205 27.1508 72.2543 27.1508C68.957 27.1508 67.002 25.0277 67.002 21.4539V13.7363H69.963V21.1176C69.963 23.2408 71.0802 24.4976 73.0067 24.4976C75.1014 24.4976 76.3297 23.0441 76.3297 20.6416V13.7363H79.2907V26.8715H76.8085Z" fill="#0D122A"/>
<path d="M105.277 8.99951H108.238V26.8684H105.277V8.99951Z" fill="#0D122A"/>
<path d="M101.879 13.7363V26.8715H98.918V13.7363H101.879Z" fill="#0D122A"/>
<path d="M96.3375 20.3319C96.3375 24.299 93.5987 27.146 89.8568 27.146C87.9588 27.146 86.5053 26.5304 85.5278 25.4703H85.4708V31.6346H82.5098V13.7344H84.9949L85.0775 15.6068H85.1345C86.0836 14.2645 87.7051 13.4551 89.854 13.4551C93.5988 13.4551 96.3375 16.3677 96.3375 20.3319ZM93.348 20.3006C93.348 17.8154 91.7007 16.1083 89.3809 16.1083C87.0354 16.1083 85.3853 17.8154 85.3853 20.3006C85.3853 22.7315 87.0326 24.4928 89.3809 24.4928C91.7007 24.4956 93.348 22.7315 93.348 20.3006Z" fill="#0D122A"/>
<path d="M101.879 9.00342H98.918V11.9645H101.879V9.00342Z" fill="#0D122A"/>
</svg>
